<?xml version="1.0" encoding="utf-8" standalone="no"?>
<!DOCTYPE svg PUBLIC "-//W3C//DTD SVG 1.1//EN"
  "http://www.w3.org/Graphics/SVG/1.1/DTD/svg11.dtd">
<svg xmlns:xlink="http://www.w3.org/1999/xlink" width="413.2175pt" height="332.25725pt" viewBox="0 0 413.2175 332.25725" xmlns="http://www.w3.org/2000/svg" version="1.1">
 <metadata>
  <rdf:RDF xmlns:dc="http://purl.org/dc/elements/1.1/" xmlns:cc="http://creativecommons.org/ns#" xmlns:rdf="http://www.w3.org/1999/02/22-rdf-syntax-ns#">
   <cc:Work>
    <dc:type rdf:resource="http://purl.org/dc/dcmitype/StillImage"/>
    <dc:date>2026-05-11T17:04:21.184385</dc:date>
    <dc:format>image/svg+xml</dc:format>
    <dc:creator>
     <cc:Agent>
      <dc:title>Matplotlib v3.10.3, https://matplotlib.org/</dc:title>
     </cc:Agent>
    </dc:creator>
   </cc:Work>
  </rdf:RDF>
 </metadata>
 <defs>
  <style type="text/css">*{stroke-linejoin: round; stroke-linecap: butt}</style>
 </defs>
 <g id="figure_1">
  <g id="patch_1">
   <path d="M 0 332.25725 
L 413.2175 332.25725 
L 413.2175 0 
L 0 0 
z
" style="fill: #ffffff"/>
  </g>
  <g id="axes_1">
   <g id="patch_2">
    <path d="M 48.8975 290.82975 
L 406.0175 290.82975 
L 406.0175 24.71775 
L 48.8975 24.71775 
z
" style="fill: #ffffff"/>
   </g>
   <g id="matplotlib.axis_1">
    <g id="xtick_1">
     <g id="line2d_1">
      <defs>
       <path id="m3b27b186c4" d="M 0 0 
L 0 3.5 
" style="stroke: #000000; stroke-width: 0.8"/>
      </defs>
      <g>
       <use xlink:href="#m3b27b186c4" x="65.130227" y="290.82975" style="stroke: #000000; stroke-width: 0.8"/>
      </g>
     </g>
     <g id="text_1">
      <!-- 0 -->
      <g transform="translate(61.312727 306.947875) scale(0.12 -0.12)">
       <defs>
        <path id="DejaVuSerif-30" d="M 2034 219 
Q 2513 219 2750 744 
Q 2988 1269 2988 2328 
Q 2988 3391 2750 3916 
Q 2513 4441 2034 4441 
Q 1556 4441 1318 3916 
Q 1081 3391 1081 2328 
Q 1081 1269 1318 744 
Q 1556 219 2034 219 
z
M 2034 -91 
Q 1275 -91 848 546 
Q 422 1184 422 2328 
Q 422 3475 848 4112 
Q 1275 4750 2034 4750 
Q 2797 4750 3222 4112 
Q 3647 3475 3647 2328 
Q 3647 1184 3222 546 
Q 2797 -91 2034 -91 
z
" transform="scale(0.015625)"/>
       </defs>
       <use xlink:href="#DejaVuSerif-30"/>
      </g>
     </g>
    </g>
    <g id="xtick_2">
     <g id="line2d_2">
      <g>
       <use xlink:href="#m3b27b186c4" x="119.257361" y="290.82975" style="stroke: #000000; stroke-width: 0.8"/>
      </g>
     </g>
     <g id="text_2">
      <!-- 500 -->
      <g transform="translate(107.804861 306.947875) scale(0.12 -0.12)">
       <defs>
        <path id="DejaVuSerif-35" d="M 3219 4666 
L 3219 4153 
L 1081 4153 
L 1081 2816 
Q 1244 2928 1461 2984 
Q 1678 3041 1947 3041 
Q 2703 3041 3140 2622 
Q 3578 2203 3578 1478 
Q 3578 738 3136 323 
Q 2694 -91 1894 -91 
Q 1572 -91 1234 -12 
Q 897 66 544 225 
L 544 1131 
L 897 1131 
Q 925 688 1179 453 
Q 1434 219 1894 219 
Q 2388 219 2653 544 
Q 2919 869 2919 1478 
Q 2919 2084 2655 2407 
Q 2391 2731 1894 2731 
Q 1613 2731 1398 2631 
Q 1184 2531 1019 2322 
L 750 2322 
L 750 4666 
L 3219 4666 
z
" transform="scale(0.015625)"/>
       </defs>
       <use xlink:href="#DejaVuSerif-35"/>
       <use xlink:href="#DejaVuSerif-30" transform="translate(63.623047 0)"/>
       <use xlink:href="#DejaVuSerif-30" transform="translate(127.246094 0)"/>
      </g>
     </g>
    </g>
    <g id="xtick_3">
     <g id="line2d_3">
      <g>
       <use xlink:href="#m3b27b186c4" x="173.384494" y="290.82975" style="stroke: #000000; stroke-width: 0.8"/>
      </g>
     </g>
     <g id="text_3">
      <!-- 1000 -->
      <g transform="translate(158.114494 306.947875) scale(0.12 -0.12)">
       <defs>
        <path id="DejaVuSerif-31" d="M 909 0 
L 909 331 
L 1722 331 
L 1722 4213 
L 781 3603 
L 781 4013 
L 1919 4750 
L 2350 4750 
L 2350 331 
L 3163 331 
L 3163 0 
L 909 0 
z
" transform="scale(0.015625)"/>
       </defs>
       <use xlink:href="#DejaVuSerif-31"/>
       <use xlink:href="#DejaVuSerif-30" transform="translate(63.623047 0)"/>
       <use xlink:href="#DejaVuSerif-30" transform="translate(127.246094 0)"/>
       <use xlink:href="#DejaVuSerif-30" transform="translate(190.869141 0)"/>
      </g>
     </g>
    </g>
    <g id="xtick_4">
     <g id="line2d_4">
      <g>
       <use xlink:href="#m3b27b186c4" x="227.511627" y="290.82975" style="stroke: #000000; stroke-width: 0.8"/>
      </g>
     </g>
     <g id="text_4">
      <!-- 1500 -->
      <g transform="translate(212.241627 306.947875) scale(0.12 -0.12)">
       <use xlink:href="#DejaVuSerif-31"/>
       <use xlink:href="#DejaVuSerif-35" transform="translate(63.623047 0)"/>
       <use xlink:href="#DejaVuSerif-30" transform="translate(127.246094 0)"/>
       <use xlink:href="#DejaVuSerif-30" transform="translate(190.869141 0)"/>
      </g>
     </g>
    </g>
    <g id="xtick_5">
     <g id="line2d_5">
      <g>
       <use xlink:href="#m3b27b186c4" x="281.63876" y="290.82975" style="stroke: #000000; stroke-width: 0.8"/>
      </g>
     </g>
     <g id="text_5">
      <!-- 2000 -->
      <g transform="translate(266.36876 306.947875) scale(0.12 -0.12)">
       <defs>
        <path id="DejaVuSerif-32" d="M 819 3553 
L 469 3553 
L 469 4384 
Q 803 4563 1142 4656 
Q 1481 4750 1806 4750 
Q 2534 4750 2956 4397 
Q 3378 4044 3378 3438 
Q 3378 2753 2422 1800 
Q 2347 1728 2309 1691 
L 1131 513 
L 3078 513 
L 3078 1088 
L 3444 1088 
L 3444 0 
L 434 0 
L 434 341 
L 1850 1753 
Q 2319 2222 2519 2614 
Q 2719 3006 2719 3438 
Q 2719 3909 2473 4175 
Q 2228 4441 1797 4441 
Q 1350 4441 1106 4219 
Q 863 3997 819 3553 
z
" transform="scale(0.015625)"/>
       </defs>
       <use xlink:href="#DejaVuSerif-32"/>
       <use xlink:href="#DejaVuSerif-30" transform="translate(63.623047 0)"/>
       <use xlink:href="#DejaVuSerif-30" transform="translate(127.246094 0)"/>
       <use xlink:href="#DejaVuSerif-30" transform="translate(190.869141 0)"/>
      </g>
     </g>
    </g>
    <g id="xtick_6">
     <g id="line2d_6">
      <g>
       <use xlink:href="#m3b27b186c4" x="335.765894" y="290.82975" style="stroke: #000000; stroke-width: 0.8"/>
      </g>
     </g>
     <g id="text_6">
      <!-- 2500 -->
      <g transform="translate(320.495894 306.947875) scale(0.12 -0.12)">
       <use xlink:href="#DejaVuSerif-32"/>
       <use xlink:href="#DejaVuSerif-35" transform="translate(63.623047 0)"/>
       <use xlink:href="#DejaVuSerif-30" transform="translate(127.246094 0)"/>
       <use xlink:href="#DejaVuSerif-30" transform="translate(190.869141 0)"/>
      </g>
     </g>
    </g>
    <g id="xtick_7">
     <g id="line2d_7">
      <g>
       <use xlink:href="#m3b27b186c4" x="389.893027" y="290.82975" style="stroke: #000000; stroke-width: 0.8"/>
      </g>
     </g>
     <g id="text_7">
      <!-- 3000 -->
      <g transform="translate(374.623027 306.947875) scale(0.12 -0.12)">
       <defs>
        <path id="DejaVuSerif-33" d="M 622 4469 
Q 988 4606 1323 4678 
Q 1659 4750 1953 4750 
Q 2638 4750 3022 4454 
Q 3406 4159 3406 3634 
Q 3406 3213 3140 2930 
Q 2875 2647 2388 2547 
Q 2963 2466 3280 2130 
Q 3597 1794 3597 1259 
Q 3597 606 3158 257 
Q 2719 -91 1894 -91 
Q 1528 -91 1179 -12 
Q 831 66 488 225 
L 488 1131 
L 838 1131 
Q 869 681 1141 450 
Q 1413 219 1906 219 
Q 2384 219 2661 495 
Q 2938 772 2938 1253 
Q 2938 1803 2653 2086 
Q 2369 2369 1819 2369 
L 1522 2369 
L 1522 2688 
L 1678 2688 
Q 2225 2688 2498 2914 
Q 2772 3141 2772 3597 
Q 2772 4006 2547 4223 
Q 2322 4441 1900 4441 
Q 1478 4441 1245 4241 
Q 1013 4041 972 3647 
L 622 3647 
L 622 4469 
z
" transform="scale(0.015625)"/>
       </defs>
       <use xlink:href="#DejaVuSerif-33"/>
       <use xlink:href="#DejaVuSerif-30" transform="translate(63.623047 0)"/>
       <use xlink:href="#DejaVuSerif-30" transform="translate(127.246094 0)"/>
       <use xlink:href="#DejaVuSerif-30" transform="translate(190.869141 0)"/>
      </g>
     </g>
    </g>
    <g id="text_8">
     <!-- Epoch -->
     <g transform="translate(208.4 322.561625) scale(0.12 -0.12)">
      <defs>
       <path id="DejaVuSerif-45" d="M 353 0 
L 353 331 
L 947 331 
L 947 4331 
L 353 4331 
L 353 4666 
L 4109 4666 
L 4109 3628 
L 3725 3628 
L 3725 4281 
L 1581 4281 
L 1581 2719 
L 3109 2719 
L 3109 3303 
L 3494 3303 
L 3494 1753 
L 3109 1753 
L 3109 2338 
L 1581 2338 
L 1581 384 
L 3775 384 
L 3775 1038 
L 4159 1038 
L 4159 0 
L 353 0 
z
" transform="scale(0.015625)"/>
       <path id="DejaVuSerif-70" d="M 1313 1825 
L 1313 1497 
Q 1313 897 1542 583 
Q 1772 269 2209 269 
Q 2650 269 2876 622 
Q 3103 975 3103 1663 
Q 3103 2353 2876 2703 
Q 2650 3053 2209 3053 
Q 1772 3053 1542 2737 
Q 1313 2422 1313 1825 
z
M 738 2988 
L 184 2988 
L 184 3322 
L 1313 3322 
L 1313 2803 
Q 1481 3116 1742 3264 
Q 2003 3413 2388 3413 
Q 3000 3413 3387 2928 
Q 3775 2444 3775 1663 
Q 3775 881 3387 395 
Q 3000 -91 2388 -91 
Q 2003 -91 1742 57 
Q 1481 206 1313 519 
L 1313 -997 
L 1856 -997 
L 1856 -1331 
L 184 -1331 
L 184 -997 
L 738 -997 
L 738 2988 
z
" transform="scale(0.015625)"/>
       <path id="DejaVuSerif-6f" d="M 1925 219 
Q 2388 219 2623 584 
Q 2859 950 2859 1663 
Q 2859 2375 2623 2739 
Q 2388 3103 1925 3103 
Q 1463 3103 1227 2739 
Q 991 2375 991 1663 
Q 991 950 1228 584 
Q 1466 219 1925 219 
z
M 1925 -91 
Q 1200 -91 759 389 
Q 319 869 319 1663 
Q 319 2456 758 2934 
Q 1197 3413 1925 3413 
Q 2653 3413 3092 2934 
Q 3531 2456 3531 1663 
Q 3531 869 3092 389 
Q 2653 -91 1925 -91 
z
" transform="scale(0.015625)"/>
       <path id="DejaVuSerif-63" d="M 3291 997 
Q 3169 466 2822 187 
Q 2475 -91 1925 -91 
Q 1200 -91 759 389 
Q 319 869 319 1663 
Q 319 2459 759 2936 
Q 1200 3413 1925 3413 
Q 2241 3413 2553 3339 
Q 2866 3266 3181 3116 
L 3181 2266 
L 2847 2266 
Q 2781 2703 2561 2903 
Q 2341 3103 1931 3103 
Q 1466 3103 1228 2742 
Q 991 2381 991 1663 
Q 991 944 1227 581 
Q 1463 219 1931 219 
Q 2303 219 2525 412 
Q 2747 606 2828 997 
L 3291 997 
z
" transform="scale(0.015625)"/>
       <path id="DejaVuSerif-68" d="M 263 0 
L 263 331 
L 781 331 
L 781 4531 
L 231 4531 
L 231 4863 
L 1356 4863 
L 1356 2731 
Q 1516 3069 1770 3241 
Q 2025 3413 2363 3413 
Q 2913 3413 3172 3097 
Q 3431 2781 3431 2113 
L 3431 331 
L 3944 331 
L 3944 0 
L 2356 0 
L 2356 331 
L 2853 331 
L 2853 1931 
Q 2853 2541 2704 2764 
Q 2556 2988 2175 2988 
Q 1775 2988 1565 2697 
Q 1356 2406 1356 1850 
L 1356 331 
L 1856 331 
L 1856 0 
L 263 0 
z
" transform="scale(0.015625)"/>
      </defs>
      <use xlink:href="#DejaVuSerif-45"/>
      <use xlink:href="#DejaVuSerif-70" transform="translate(72.998047 0)"/>
      <use xlink:href="#DejaVuSerif-6f" transform="translate(137.011719 0)"/>
      <use xlink:href="#DejaVuSerif-63" transform="translate(197.216797 0)"/>
      <use xlink:href="#DejaVuSerif-68" transform="translate(253.222656 0)"/>
     </g>
    </g>
   </g>
   <g id="matplotlib.axis_2">
    <g id="ytick_1">
     <g id="line2d_8">
      <defs>
       <path id="md09fe79c71" d="M 0 0 
L -3.5 0 
" style="stroke: #000000; stroke-width: 0.8"/>
      </defs>
      <g>
       <use xlink:href="#md09fe79c71" x="48.8975" y="272.658264" style="stroke: #000000; stroke-width: 0.8"/>
      </g>
     </g>
     <g id="text_9">
      <!-- 0.2 -->
      <g transform="translate(22.81375 277.217326) scale(0.12 -0.12)">
       <defs>
        <path id="DejaVuSerif-2e" d="M 603 325 
Q 603 500 722 622 
Q 841 744 1019 744 
Q 1191 744 1312 622 
Q 1434 500 1434 325 
Q 1434 153 1312 31 
Q 1191 -91 1019 -91 
Q 841 -91 722 29 
Q 603 150 603 325 
z
" transform="scale(0.015625)"/>
       </defs>
       <use xlink:href="#DejaVuSerif-30"/>
       <use xlink:href="#DejaVuSerif-2e" transform="translate(63.623047 0)"/>
       <use xlink:href="#DejaVuSerif-32" transform="translate(95.410156 0)"/>
      </g>
     </g>
    </g>
    <g id="ytick_2">
     <g id="line2d_9">
      <g>
       <use xlink:href="#md09fe79c71" x="48.8975" y="215.699945" style="stroke: #000000; stroke-width: 0.8"/>
      </g>
     </g>
     <g id="text_10">
      <!-- 0.4 -->
      <g transform="translate(22.81375 220.259007) scale(0.12 -0.12)">
       <defs>
        <path id="DejaVuSerif-34" d="M 2234 1581 
L 2234 4063 
L 641 1581 
L 2234 1581 
z
M 3609 0 
L 1484 0 
L 1484 331 
L 2234 331 
L 2234 1247 
L 197 1247 
L 197 1588 
L 2241 4750 
L 2859 4750 
L 2859 1581 
L 3750 1581 
L 3750 1247 
L 2859 1247 
L 2859 331 
L 3609 331 
L 3609 0 
z
" transform="scale(0.015625)"/>
       </defs>
       <use xlink:href="#DejaVuSerif-30"/>
       <use xlink:href="#DejaVuSerif-2e" transform="translate(63.623047 0)"/>
       <use xlink:href="#DejaVuSerif-34" transform="translate(95.410156 0)"/>
      </g>
     </g>
    </g>
    <g id="ytick_3">
     <g id="line2d_10">
      <g>
       <use xlink:href="#md09fe79c71" x="48.8975" y="158.741625" style="stroke: #000000; stroke-width: 0.8"/>
      </g>
     </g>
     <g id="text_11">
      <!-- 0.6 -->
      <g transform="translate(22.81375 163.300688) scale(0.12 -0.12)">
       <defs>
        <path id="DejaVuSerif-36" d="M 2094 219 
Q 2534 219 2771 542 
Q 3009 866 3009 1472 
Q 3009 2078 2771 2401 
Q 2534 2725 2094 2725 
Q 1647 2725 1412 2412 
Q 1178 2100 1178 1509 
Q 1178 888 1415 553 
Q 1653 219 2094 219 
z
M 1075 2569 
Q 1288 2803 1556 2918 
Q 1825 3034 2163 3034 
Q 2859 3034 3264 2615 
Q 3669 2197 3669 1472 
Q 3669 763 3233 336 
Q 2797 -91 2069 -91 
Q 1278 -91 853 498 
Q 428 1088 428 2181 
Q 428 3406 931 4078 
Q 1434 4750 2350 4750 
Q 2597 4750 2869 4703 
Q 3141 4656 3425 4563 
L 3425 3794 
L 3072 3794 
Q 3034 4109 2831 4275 
Q 2628 4441 2284 4441 
Q 1678 4441 1381 3981 
Q 1084 3522 1075 2569 
z
" transform="scale(0.015625)"/>
       </defs>
       <use xlink:href="#DejaVuSerif-30"/>
       <use xlink:href="#DejaVuSerif-2e" transform="translate(63.623047 0)"/>
       <use xlink:href="#DejaVuSerif-36" transform="translate(95.410156 0)"/>
      </g>
     </g>
    </g>
    <g id="ytick_4">
     <g id="line2d_11">
      <g>
       <use xlink:href="#md09fe79c71" x="48.8975" y="101.783306" style="stroke: #000000; stroke-width: 0.8"/>
      </g>
     </g>
     <g id="text_12">
      <!-- 0.8 -->
      <g transform="translate(22.81375 106.342369) scale(0.12 -0.12)">
       <defs>
        <path id="DejaVuSerif-38" d="M 2981 1275 
Q 2981 1775 2732 2051 
Q 2484 2328 2034 2328 
Q 1584 2328 1336 2051 
Q 1088 1775 1088 1275 
Q 1088 772 1336 495 
Q 1584 219 2034 219 
Q 2484 219 2732 495 
Q 2981 772 2981 1275 
z
M 2853 3541 
Q 2853 3966 2637 4203 
Q 2422 4441 2034 4441 
Q 1650 4441 1433 4203 
Q 1216 3966 1216 3541 
Q 1216 3113 1433 2875 
Q 1650 2638 2034 2638 
Q 2422 2638 2637 2875 
Q 2853 3113 2853 3541 
z
M 2516 2484 
Q 3047 2413 3344 2092 
Q 3641 1772 3641 1275 
Q 3641 619 3225 264 
Q 2809 -91 2034 -91 
Q 1263 -91 845 264 
Q 428 619 428 1275 
Q 428 1772 725 2092 
Q 1022 2413 1556 2484 
Q 1084 2569 832 2842 
Q 581 3116 581 3541 
Q 581 4103 968 4426 
Q 1356 4750 2034 4750 
Q 2713 4750 3100 4426 
Q 3488 4103 3488 3541 
Q 3488 3116 3236 2842 
Q 2984 2569 2516 2484 
z
" transform="scale(0.015625)"/>
       </defs>
       <use xlink:href="#DejaVuSerif-30"/>
       <use xlink:href="#DejaVuSerif-2e" transform="translate(63.623047 0)"/>
       <use xlink:href="#DejaVuSerif-38" transform="translate(95.410156 0)"/>
      </g>
     </g>
    </g>
    <g id="ytick_5">
     <g id="line2d_12">
      <g>
       <use xlink:href="#md09fe79c71" x="48.8975" y="44.824987" style="stroke: #000000; stroke-width: 0.8"/>
      </g>
     </g>
     <g id="text_13">
      <!-- 1.0 -->
      <g transform="translate(22.81375 49.38405) scale(0.12 -0.12)">
       <use xlink:href="#DejaVuSerif-31"/>
       <use xlink:href="#DejaVuSerif-2e" transform="translate(63.623047 0)"/>
       <use xlink:href="#DejaVuSerif-30" transform="translate(95.410156 0)"/>
      </g>
     </g>
    </g>
    <g id="text_14">
     <!-- MSE -->
     <g transform="translate(16.318125 172.407187) rotate(-90) scale(0.12 -0.12)">
      <defs>
       <path id="DejaVuSerif-4d" d="M 353 0 
L 353 331 
L 947 331 
L 947 4331 
L 319 4331 
L 319 4666 
L 1678 4666 
L 3316 1344 
L 4953 4666 
L 6228 4666 
L 6228 4331 
L 5606 4331 
L 5606 331 
L 6203 331 
L 6203 0 
L 4378 0 
L 4378 331 
L 4972 331 
L 4972 3938 
L 3372 684 
L 2931 684 
L 1331 3938 
L 1331 331 
L 1925 331 
L 1925 0 
L 353 0 
z
" transform="scale(0.015625)"/>
       <path id="DejaVuSerif-53" d="M 594 225 
L 594 1288 
L 953 1284 
Q 969 753 1261 498 
Q 1553 244 2150 244 
Q 2706 244 2998 464 
Q 3291 684 3291 1106 
Q 3291 1444 3114 1625 
Q 2938 1806 2369 1978 
L 1753 2163 
Q 1084 2366 811 2669 
Q 538 2972 538 3500 
Q 538 4094 959 4422 
Q 1381 4750 2144 4750 
Q 2469 4750 2856 4679 
Q 3244 4609 3681 4475 
L 3681 3481 
L 3328 3481 
Q 3275 3975 2998 4195 
Q 2722 4416 2156 4416 
Q 1663 4416 1405 4214 
Q 1147 4013 1147 3628 
Q 1147 3294 1340 3103 
Q 1534 2913 2163 2725 
L 2741 2553 
Q 3375 2363 3645 2067 
Q 3916 1772 3916 1275 
Q 3916 597 3481 253 
Q 3047 -91 2188 -91 
Q 1803 -91 1404 -12 
Q 1006 66 594 225 
z
" transform="scale(0.015625)"/>
      </defs>
      <use xlink:href="#DejaVuSerif-4d"/>
      <use xlink:href="#DejaVuSerif-53" transform="translate(102.392578 0)"/>
      <use xlink:href="#DejaVuSerif-45" transform="translate(170.898438 0)"/>
     </g>
    </g>
   </g>
   <g id="line2d_13">
    <path d="M 65.130227 36.81375 
L 65.346736 82.985721 
L 65.45499 86.753317 
L 65.563244 120.707653 
L 65.671499 113.240377 
L 65.996261 168.929836 
L 66.104516 154.965637 
L 66.21277 191.638283 
L 66.321024 188.909864 
L 66.537533 195.071677 
L 66.754041 186.124783 
L 66.862296 206.810433 
L 66.97055 189.633343 
L 67.078804 196.011357 
L 67.295313 183.591721 
L 67.403567 223.323312 
L 67.511821 209.153818 
L 67.620075 176.216194 
L 67.72833 216.212967 
L 67.836584 195.818887 
L 67.944838 202.203843 
L 68.053092 194.215412 
L 68.161347 197.694724 
L 68.377855 212.072618 
L 68.48611 211.808319 
L 68.594364 201.70956 
L 68.810872 217.386968 
L 68.919127 198.506837 
L 69.027381 198.770483 
L 69.135635 192.297579 
L 69.243889 233.816152 
L 69.352144 210.003845 
L 69.460398 215.366683 
L 69.568652 212.280714 
L 69.893415 227.792532 
L 70.109924 201.362661 
L 70.218178 219.837601 
L 70.326432 204.818462 
L 70.434686 205.676594 
L 70.542941 227.105778 
L 70.651195 188.668829 
L 70.759449 227.315045 
L 70.867703 222.225876 
L 70.975958 205.371649 
L 71.084212 238.71718 
L 71.192466 207.026965 
L 71.408975 228.805857 
L 71.517229 232.396584 
L 71.733738 225.197282 
L 71.950246 233.174246 
L 72.166755 202.188413 
L 72.275009 212.802667 
L 72.383263 204.203283 
L 72.599772 234.001883 
L 72.708026 235.540794 
L 72.81628 213.848804 
L 72.924534 224.948234 
L 73.032789 220.501871 
L 73.141043 238.580328 
L 73.249297 201.771832 
L 73.357552 211.707913 
L 73.465806 237.382358 
L 73.57406 230.49778 
L 73.682314 210.658804 
L 73.790569 218.301839 
L 73.898823 240.871159 
L 74.007077 238.288682 
L 74.115331 231.403739 
L 74.223586 237.303111 
L 74.33184 219.301958 
L 74.440094 236.275875 
L 74.548348 229.817977 
L 74.656603 212.624761 
L 74.873111 241.583791 
L 75.08962 223.210641 
L 75.306128 231.222209 
L 75.414383 213.106178 
L 75.630891 229.426757 
L 75.739145 237.017916 
L 75.8474 229.253698 
L 75.955654 229.481467 
L 76.063908 223.136325 
L 76.280417 239.529251 
L 76.388671 216.479176 
L 76.496925 221.352729 
L 76.60518 219.029731 
L 76.713434 222.543375 
L 76.821688 247.746028 
L 77.038197 214.704696 
L 77.146451 227.019469 
L 77.254705 219.798652 
L 77.362959 240.554764 
L 77.471214 222.454231 
L 77.687722 233.799525 
L 77.795976 233.464356 
L 78.012485 221.89209 
L 78.120739 214.985563 
L 78.228994 245.47028 
L 78.337248 227.674539 
L 78.445502 231.458321 
L 78.553756 221.425263 
L 78.770265 239.307312 
L 78.878519 231.772917 
L 78.986773 239.051721 
L 79.095028 238.900696 
L 79.311536 236.345642 
L 79.41979 219.884324 
L 79.636299 231.968256 
L 79.744553 227.711774 
L 79.852808 228.548679 
L 79.961062 217.717741 
L 80.17757 247.826218 
L 80.394079 220.274008 
L 80.718842 245.27652 
L 80.93535 221.238947 
L 81.043604 246.453525 
L 81.151859 230.095432 
L 81.260113 247.873883 
L 81.368367 225.586058 
L 81.476622 236.383767 
L 81.584876 233.335432 
L 81.909639 252.998114 
L 82.017893 229.678613 
L 82.126147 237.741709 
L 82.342656 223.038482 
L 82.45091 237.342179 
L 82.559164 226.72094 
L 82.667418 226.906468 
L 82.775673 233.67897 
L 82.883927 253.422809 
L 82.992181 229.726007 
L 83.100436 238.117762 
L 83.20869 218.813522 
L 83.316944 240.173576 
L 83.425198 239.742948 
L 83.533453 241.241102 
L 83.641707 235.829978 
L 83.858215 254.073771 
L 83.96647 240.030112 
L 84.074724 240.453203 
L 84.182978 232.871168 
L 84.291232 235.409951 
L 84.399487 242.684826 
L 84.507741 239.445098 
L 84.615995 232.357779 
L 84.832504 242.907214 
L 84.940758 225.06385 
L 85.049012 233.07109 
L 85.157267 229.074341 
L 85.265521 251.584393 
L 85.373775 238.166947 
L 85.482029 254.287833 
L 85.590284 241.359374 
L 85.698538 241.566315 
L 85.806792 236.502414 
L 85.915046 209.298003 
L 86.023301 255.656468 
L 86.131555 253.236577 
L 86.239809 245.403271 
L 86.348064 227.868512 
L 86.564572 247.149123 
L 86.672826 242.556376 
L 86.781081 253.092961 
L 86.997589 236.45782 
L 87.214098 256.460909 
L 87.322352 226.166438 
L 87.53886 262.869546 
L 87.647115 242.579615 
L 87.755369 243.829885 
L 87.863623 221.324899 
L 88.080132 250.136196 
L 88.188386 253.639426 
L 88.29664 220.05802 
L 88.404895 256.813936 
L 88.513149 237.315129 
L 88.729657 248.308339 
L 88.946166 228.747625 
L 89.05442 256.898166 
L 89.162674 256.40507 
L 89.379183 241.263916 
L 89.487437 233.481832 
L 89.595692 245.13169 
L 89.703946 236.959904 
L 89.8122 241.122014 
L 90.028709 235.591914 
L 90.136963 234.922772 
L 90.245217 253.143996 
L 90.353471 228.776228 
L 90.786488 258.995576 
L 90.894743 234.013961 
L 91.002997 238.107357 
L 91.111251 236.375993 
L 91.219506 246.679045 
L 91.32776 242.163161 
L 91.544268 254.053927 
L 91.652523 234.242961 
L 91.760777 249.897351 
L 91.869031 228.2176 
L 92.08554 249.341763 
L 92.302048 240.767205 
L 92.518557 230.40693 
L 92.84332 248.64378 
L 92.951574 245.249122 
L 93.059828 260.521407 
L 93.276337 240.268015 
L 93.384591 260.839207 
L 93.492845 237.703099 
L 93.601099 253.583417 
L 93.709354 235.008682 
L 93.817608 245.835342 
L 93.925862 238.054505 
L 94.034116 259.823247 
L 94.250625 232.797599 
L 94.358879 241.647303 
L 94.467134 261.918264 
L 94.575388 261.007149 
L 94.683642 225.288895 
L 94.791896 259.920577 
L 94.900151 242.120138 
L 95.008405 252.684503 
L 95.224913 247.51567 
L 95.441422 232.795748 
L 95.549676 244.191594 
L 95.65793 243.763971 
L 95.766185 239.011431 
L 96.199202 251.065929 
L 96.41571 210.125012 
L 96.632219 243.515144 
L 96.740473 247.975665 
L 96.848727 235.262015 
L 96.956982 240.062101 
L 97.065236 226.389047 
L 97.17349 248.236993 
L 97.281744 239.531975 
L 97.389999 240.015497 
L 97.498253 231.835818 
L 97.714762 241.737601 
L 97.823016 241.750043 
L 97.93127 244.80578 
L 98.039524 231.445556 
L 98.256033 247.616094 
L 98.580796 221.728774 
L 98.797304 244.52712 
L 98.905558 228.175282 
L 99.122067 249.507845 
L 99.230321 248.032904 
L 99.338576 259.703977 
L 99.555084 246.89629 
L 99.663338 238.669048 
L 99.771593 240.365035 
L 99.879847 251.138208 
L 99.988101 250.730377 
L 100.096355 226.784129 
L 100.529372 249.282664 
L 100.637627 249.678086 
L 100.745881 254.952647 
L 100.96239 246.575889 
L 101.070644 250.192044 
L 101.287152 247.287146 
L 101.503661 231.673903 
L 101.611915 225.429524 
L 101.828424 255.244929 
L 101.936678 236.601301 
L 102.044932 240.303875 
L 102.153186 249.265223 
L 102.261441 239.710959 
L 102.477949 244.687822 
L 102.586204 216.990282 
L 102.694458 253.595181 
L 102.802712 230.018799 
L 102.910966 252.530549 
L 103.019221 225.295354 
L 103.127475 251.451318 
L 103.235729 245.191433 
L 103.343983 249.801681 
L 103.452238 222.758735 
L 103.668746 248.153969 
L 103.885255 241.873663 
L 103.993509 262.087873 
L 104.101763 237.397127 
L 104.210018 248.952358 
L 104.426526 244.083345 
L 104.53478 249.987607 
L 104.643035 237.323846 
L 104.859543 249.796936 
L 104.967797 238.826643 
L 105.184306 264.052196 
L 105.29256 243.200387 
L 105.509069 248.931632 
L 105.617323 234.870073 
L 105.725577 251.533672 
L 105.833832 251.463328 
L 105.942086 227.580498 
L 106.158594 252.788966 
L 106.266849 242.345625 
L 106.375103 249.150031 
L 106.483357 242.393664 
L 106.591611 258.008995 
L 106.80812 237.756409 
L 106.916374 253.758335 
L 107.024628 244.549527 
L 107.241137 250.951679 
L 107.349391 247.510154 
L 107.457646 239.485184 
L 107.5659 265.421879 
L 107.674154 244.300887 
L 107.782408 255.873102 
L 107.890663 239.444801 
L 107.998917 241.832584 
L 108.107171 226.683935 
L 108.32368 264.755135 
L 108.431934 216.503959 
L 108.648442 246.704177 
L 108.864951 247.534801 
L 108.973205 229.133006 
L 109.189714 258.042529 
L 109.297968 242.238267 
L 109.406222 254.860464 
L 109.622731 228.656003 
L 109.839239 236.71028 
L 110.055748 230.366555 
L 110.272256 247.700654 
L 110.380511 241.105727 
L 110.488765 241.857919 
L 110.597019 237.342408 
L 110.705274 254.108637 
L 110.921782 228.565807 
L 111.030036 250.745247 
L 111.138291 247.130111 
L 111.246545 237.357465 
L 111.354799 251.333682 
L 111.463053 230.711069 
L 111.571308 243.450606 
L 111.679562 239.937633 
L 112.004325 247.984398 
L 112.112579 245.812027 
L 112.220833 248.47106 
L 112.329087 256.718571 
L 112.437342 235.983516 
L 112.762105 268.974353 
L 112.870359 234.834222 
L 113.086867 244.63284 
L 113.195122 243.28819 
L 113.41163 235.867425 
L 113.519884 249.886428 
L 113.628139 248.713012 
L 113.736393 253.786445 
L 113.844647 245.388512 
L 113.952901 249.151703 
L 114.16941 261.266763 
L 114.277664 259.37185 
L 114.385919 249.098173 
L 114.494173 257.074492 
L 114.602427 251.661188 
L 114.710681 239.604789 
L 114.818936 264.977205 
L 115.035444 245.525202 
L 115.143698 252.639146 
L 115.251953 232.333912 
L 115.576715 259.956805 
L 115.793224 250.792183 
L 115.901478 245.513235 
L 116.009733 249.935231 
L 116.117987 240.468421 
L 116.226241 250.70466 
L 116.334495 231.926252 
L 116.44275 252.275119 
L 116.551004 244.158901 
L 116.659258 223.598594 
L 116.875767 235.030579 
L 116.984021 260.167846 
L 117.092275 255.868154 
L 117.200529 239.250913 
L 117.308784 249.584512 
L 117.417038 235.963859 
L 117.525292 251.293095 
L 117.633547 241.739485 
L 117.741801 247.603448 
L 117.850055 236.518862 
L 118.174818 253.287833 
L 118.283072 237.216055 
L 118.391326 258.308271 
L 118.499581 241.728417 
L 118.716089 248.087988 
L 118.824343 248.425551 
L 118.932598 252.546098 
L 119.040852 220.251703 
L 119.149106 263.304685 
L 119.257361 245.288979 
L 119.365615 247.23056 
L 119.473869 245.618471 
L 119.582123 261.217574 
L 119.798632 227.892879 
L 119.906886 259.121971 
L 120.123395 236.444962 
L 120.231649 264.334488 
L 120.448157 239.879036 
L 120.556412 244.383962 
L 120.664666 240.047732 
L 120.77292 261.088883 
L 120.881175 240.56062 
L 120.989429 256.617961 
L 121.097683 239.829927 
L 121.314192 256.135398 
L 121.422446 228.704033 
L 121.638954 246.805288 
L 121.855463 265.896531 
L 121.963717 235.206847 
L 122.180226 251.314654 
L 122.28848 252.557301 
L 122.504989 233.959429 
L 122.721497 271.188669 
L 122.938006 250.962628 
L 123.04626 241.760534 
L 123.154514 242.014275 
L 123.262768 240.828688 
L 123.479277 247.195422 
L 123.587531 239.66578 
L 123.695785 245.70691 
L 123.80404 258.462717 
L 123.912294 240.703642 
L 124.020548 256.196907 
L 124.237057 241.199751 
L 124.345311 238.532255 
L 124.453565 253.786938 
L 124.56182 230.852207 
L 124.670074 237.804787 
L 124.778328 255.344877 
L 124.994837 244.491269 
L 125.103091 262.125459 
L 125.211345 257.079636 
L 125.319599 258.761972 
L 125.536108 253.80303 
L 125.644362 218.683044 
L 125.860871 245.861432 
L 125.969125 242.143106 
L 126.077379 225.715042 
L 126.293888 266.51264 
L 126.402142 236.464712 
L 126.618651 254.533978 
L 126.726905 225.83491 
L 126.943413 260.13309 
L 127.051668 251.645435 
L 127.159922 233.229865 
L 127.376431 267.164722 
L 127.484685 247.309349 
L 127.592939 252.696461 
L 127.701193 245.457158 
L 127.809448 257.939822 
L 128.025956 233.379897 
L 128.242465 261.57683 
L 128.458973 234.888508 
L 128.89199 254.584003 
L 129.000245 250.252245 
L 129.108499 237.798031 
L 129.216753 254.033337 
L 129.325007 253.992979 
L 129.541516 247.152408 
L 129.64977 238.173126 
L 129.866279 258.639485 
L 129.974533 250.840358 
L 130.082787 251.061116 
L 130.191041 246.302271 
L 130.299296 251.043751 
L 130.515804 239.822721 
L 130.624059 249.429362 
L 130.732313 229.546447 
L 130.840567 266.198608 
L 131.273584 219.050143 
L 131.490093 263.582118 
L 131.706601 239.895637 
L 131.92311 261.103625 
L 132.031364 241.852555 
L 132.139618 264.572803 
L 132.247873 237.809116 
L 132.464381 256.878882 
L 132.572635 247.365434 
L 132.68089 254.860184 
L 132.789144 248.99623 
L 132.897398 261.475032 
L 133.113907 245.873943 
L 133.222161 248.034992 
L 133.330415 261.150752 
L 133.438669 235.756969 
L 133.655178 252.423598 
L 133.763432 254.860719 
L 133.871687 250.68603 
L 133.979941 239.615288 
L 134.088195 241.982633 
L 134.196449 253.456326 
L 134.304704 227.540361 
L 134.521212 250.275068 
L 134.629466 245.74804 
L 134.737721 253.60697 
L 134.845975 233.528895 
L 134.954229 257.331883 
L 135.062483 255.349061 
L 135.170738 248.497007 
L 135.278992 254.003902 
L 135.387246 250.365222 
L 135.495501 254.574174 
L 135.603755 241.934849 
L 135.712009 255.188581 
L 135.820263 247.613531 
L 135.928518 259.397873 
L 136.036772 239.487357 
L 136.145026 258.375016 
L 136.361535 229.330424 
L 136.578043 250.376391 
L 136.794552 257.755916 
L 136.902806 255.288622 
L 137.01106 236.081563 
L 137.119315 260.463277 
L 137.335823 246.673512 
L 137.444077 263.934551 
L 137.660586 245.606928 
L 137.76884 248.109232 
L 137.877094 253.925877 
L 138.093603 237.831981 
L 138.201857 240.187308 
L 138.418366 259.701749 
L 138.52662 247.226308 
L 138.634874 261.024658 
L 138.743129 258.913243 
L 138.851383 254.54648 
L 139.067891 258.977069 
L 139.176146 245.297967 
L 139.2844 259.330881 
L 139.392654 254.617537 
L 139.609163 237.359553 
L 139.717417 264.890229 
L 139.825671 237.502982 
L 139.933925 255.244522 
L 140.04218 250.212651 
L 140.150434 229.902886 
L 140.366943 256.629351 
L 140.475197 256.880316 
L 140.583451 230.024672 
L 140.691705 248.043191 
L 140.79996 236.583257 
L 140.908214 259.650404 
L 141.016468 231.385236 
L 141.124722 251.988404 
L 141.232977 245.538383 
L 141.341231 246.253468 
L 141.449485 250.029127 
L 141.557739 261.584927 
L 141.665994 249.200192 
L 141.774248 251.166853 
L 141.882502 258.029322 
L 141.990757 246.754142 
L 142.099011 247.380881 
L 142.207265 248.919121 
L 142.315519 238.306413 
L 142.423774 254.589019 
L 142.532028 228.501947 
L 142.640282 254.444427 
L 142.748536 251.008172 
L 142.856791 242.621212 
L 142.965045 224.832457 
L 143.073299 259.679817 
L 143.289808 249.96346 
L 143.398062 247.401158 
L 143.506316 255.55905 
L 143.614571 253.100507 
L 143.722825 257.582984 
L 143.939333 241.896919 
L 144.047588 237.609678 
L 144.155842 256.988031 
L 144.264096 252.944558 
L 144.37235 257.724792 
L 144.588859 238.522113 
L 144.697113 262.434606 
L 145.021876 243.876998 
L 145.13013 249.151533 
L 145.238385 242.676431 
L 145.346639 245.224695 
L 145.454893 243.939729 
L 145.563147 252.538773 
L 145.779656 228.377623 
L 146.104419 262.313528 
L 146.212673 257.512581 
L 146.320927 247.2557 
L 146.429181 251.375262 
L 146.537436 225.132098 
L 146.64569 255.719267 
L 146.753944 244.875157 
L 146.862199 256.533689 
L 146.970453 231.063154 
L 147.078707 250.333827 
L 147.186961 248.402915 
L 147.40347 266.8409 
L 147.511724 246.87682 
L 147.619978 254.975266 
L 147.728233 273.241767 
L 147.836487 244.141382 
L 147.944741 249.827924 
L 148.052995 233.866271 
L 148.16125 238.130391 
L 148.377758 259.547863 
L 148.594267 215.304241 
L 148.810775 250.264807 
L 148.91903 246.305394 
L 149.027284 250.311513 
L 149.135538 243.777865 
L 149.243792 252.057475 
L 149.352047 241.491541 
L 149.460301 248.997792 
L 149.568555 239.531755 
L 149.785064 250.059843 
L 150.001572 233.253129 
L 150.109827 242.771236 
L 150.218081 262.5919 
L 150.326335 257.492457 
L 150.434589 260.684341 
L 150.759352 241.802971 
L 150.867606 243.465119 
L 150.975861 259.468535 
L 151.192369 239.083405 
L 151.300623 253.993149 
L 151.408878 246.629937 
L 151.517132 260.927591 
L 151.733641 241.550266 
L 151.841895 234.401235 
L 152.058403 238.762129 
L 152.166658 231.630116 
L 152.49142 258.334641 
L 152.599675 264.416116 
L 152.816183 247.194726 
L 152.924437 244.471714 
L 153.032692 235.566086 
L 153.140946 252.617333 
L 153.2492 249.325085 
L 153.357455 266.923708 
L 153.465709 238.052876 
L 153.573963 239.884484 
L 153.682217 254.099853 
L 153.790472 251.353959 
L 153.898726 252.599306 
L 154.00698 235.078321 
L 154.223489 264.537126 
L 154.331743 249.75483 
L 154.439997 250.9854 
L 154.548251 250.848328 
L 154.76476 242.982099 
L 154.873014 245.571009 
L 154.981269 245.240329 
L 155.197777 252.346872 
L 155.306031 252.628129 
L 155.52254 237.233752 
L 155.630794 254.130442 
L 155.739048 250.231298 
L 155.847303 251.817255 
L 155.955557 259.954 
L 156.063811 235.626874 
L 156.28032 266.11667 
L 156.496828 258.200964 
L 156.605083 236.345981 
L 156.713337 265.769746 
L 156.821591 264.942071 
L 156.929845 268.613636 
L 157.0381 247.578002 
L 157.146354 254.501623 
L 157.362862 242.76336 
L 157.471117 258.802109 
L 157.687625 239.574964 
L 157.795879 256.698668 
L 157.904134 243.614524 
L 158.228897 261.504454 
L 158.553659 231.592415 
L 158.661914 252.975868 
L 158.770168 226.290542 
L 158.878422 260.821944 
L 158.986676 251.731107 
L 159.094931 252.128261 
L 159.203185 235.15324 
L 159.311439 256.266139 
L 159.419693 238.627697 
L 159.527948 250.517028 
L 159.636202 243.730191 
L 159.744456 245.87985 
L 159.852711 250.810618 
L 159.960965 249.746962 
L 160.069219 262.196584 
L 160.177473 244.067618 
L 160.285728 255.323565 
L 160.502236 228.519151 
L 160.61049 260.973954 
L 160.718745 241.73188 
L 160.935253 250.926208 
L 161.151762 244.119994 
L 161.260016 253.794636 
L 161.36827 251.900415 
L 161.476525 245.360588 
L 161.584779 269.095579 
L 161.801287 233.067788 
L 161.909542 256.34093 
L 162.12605 239.729096 
L 162.450813 261.662931 
L 162.559067 251.568997 
L 162.667321 252.224041 
L 162.775576 255.806552 
L 163.100339 240.377402 
L 163.316847 272.443832 
L 163.425101 235.23859 
L 163.533356 250.53582 
L 163.64161 242.344801 
L 163.749864 253.108077 
L 163.858118 248.535472 
L 163.966373 262.020092 
L 164.182881 242.820862 
L 164.291135 253.942725 
L 164.39939 246.13848 
L 164.507644 252.759353 
L 164.615898 248.589868 
L 164.724153 250.822161 
L 164.832407 248.098122 
L 164.940661 235.546107 
L 165.15717 261.105565 
L 165.265424 262.002332 
L 165.373678 253.31316 
L 165.481932 273.419345 
L 165.698441 252.463175 
L 165.806695 249.050193 
L 166.023204 238.887956 
L 166.239712 259.32505 
L 166.347967 236.19375 
L 166.456221 265.914147 
L 166.564475 256.292781 
L 166.780984 264.609804 
L 166.889238 263.985662 
L 167.105746 236.460698 
L 167.214001 269.365442 
L 167.322255 254.340795 
L 167.430509 268.60301 
L 167.538763 234.189838 
L 167.647018 256.530633 
L 167.755272 250.477723 
L 167.863526 259.031525 
L 167.971781 242.497889 
L 168.080035 249.380627 
L 168.188289 243.093819 
L 168.296543 263.473445 
L 168.513052 247.731421 
L 168.621306 248.11115 
L 168.72956 249.875589 
L 168.837815 264.620727 
L 168.946069 257.689926 
L 169.054323 243.462471 
L 169.162577 251.526152 
L 169.270832 269.310736 
L 169.379086 245.149522 
L 169.48734 257.151694 
L 169.812103 224.2777 
L 169.920357 254.461325 
L 170.136866 247.589902 
L 170.24512 250.769488 
L 170.353374 267.298208 
L 170.569883 236.829079 
L 170.786391 262.647595 
L 170.894646 262.396544 
L 171.111154 244.884646 
L 171.219409 238.475126 
L 171.435917 261.359942 
L 171.652426 243.937225 
L 171.868934 256.788321 
L 171.977188 242.028007 
L 172.085443 249.775285 
L 172.301951 230.611919 
L 172.410205 252.377325 
L 172.51846 232.034203 
L 172.626714 256.903496 
L 172.734968 227.099956 
L 172.951477 253.475779 
L 173.059731 251.995135 
L 173.167985 237.550928 
L 173.27624 237.595852 
L 173.384494 242.180696 
L 173.492748 253.879918 
L 173.601002 250.306217 
L 173.709257 251.069689 
L 173.817511 263.268324 
L 173.925765 249.60798 
L 174.034019 257.312744 
L 174.142274 256.918255 
L 174.250528 234.474116 
L 174.358782 266.16173 
L 174.575291 235.534471 
L 174.791799 251.384234 
L 174.900054 248.157152 
L 175.116562 266.455409 
L 175.333071 241.510884 
L 175.549579 263.680836 
L 175.657833 249.84119 
L 175.766088 259.461609 
L 175.874342 241.850823 
L 175.982596 257.537542 
L 176.090851 237.42887 
L 176.415613 272.311822 
L 176.632122 234.087971 
L 176.84863 240.906543 
L 176.956885 240.140152 
L 177.065139 267.336495 
L 177.281647 241.705959 
L 177.389902 254.621738 
L 177.498156 234.048946 
L 177.822919 253.910388 
L 177.931173 243.4861 
L 178.039427 246.222777 
L 178.147682 245.75831 
L 178.255936 246.528495 
L 178.36419 262.128226 
L 178.472444 255.475338 
L 178.580699 236.833042 
L 178.688953 261.497974 
L 178.797207 240.570067 
L 178.905461 249.198342 
L 179.013716 239.897623 
L 179.12197 264.794971 
L 179.338479 243.895442 
L 179.446733 254.586252 
L 179.554987 244.658718 
L 179.663241 264.813019 
L 179.771496 262.74195 
L 179.87975 225.947835 
L 179.988004 263.64939 
L 180.096258 254.939228 
L 180.204513 259.89702 
L 180.312767 246.900483 
L 180.529275 252.77217 
L 180.63753 264.827397 
L 180.854038 243.827313 
L 180.962293 274.172169 
L 181.070547 243.41366 
L 181.178801 255.701443 
L 181.39531 239.845578 
L 181.503564 255.012823 
L 181.611818 249.338435 
L 181.720072 262.23718 
L 182.044835 239.0946 
L 182.153089 262.188254 
L 182.369598 240.305598 
L 182.477852 256.671338 
L 182.586107 252.07821 
L 182.694361 239.757037 
L 182.802615 262.361381 
L 183.019124 226.19005 
L 183.235632 248.008469 
L 183.343886 253.27332 
L 183.452141 240.502999 
L 183.560395 253.217481 
L 183.668649 243.980342 
L 183.885158 258.875911 
L 183.993412 239.627459 
L 184.101666 258.182605 
L 184.209921 249.3475 
L 184.426429 253.495275 
L 184.642938 230.881854 
L 184.751192 226.626865 
L 185.184209 260.621958 
L 185.292463 254.002375 
L 185.400717 224.973018 
L 185.617226 253.154478 
L 185.72548 234.135688 
L 186.050243 268.851072 
L 186.266752 253.947062 
L 186.375006 263.078485 
L 186.591514 251.862502 
L 186.808023 258.484432 
L 186.916277 235.181376 
L 187.132786 261.603562 
L 187.24104 241.882032 
L 187.457549 248.636413 
L 187.565803 266.922261 
L 187.674057 245.99056 
L 187.890566 260.646568 
L 187.99882 249.566323 
L 188.107074 251.25121 
L 188.215328 259.69422 
L 188.323583 246.027549 
L 188.431837 264.788431 
L 188.540091 249.205149 
L 188.648345 253.442704 
L 188.7566 265.856759 
L 189.081362 247.947597 
L 189.189617 255.927337 
L 189.297871 251.462666 
L 189.406125 260.458091 
L 189.622634 240.655833 
L 189.730888 259.046857 
L 189.839142 258.259587 
L 189.947397 259.510573 
L 190.055651 251.690011 
L 190.163905 251.763419 
L 190.272159 252.821125 
L 190.380414 267.549857 
L 190.488668 239.377427 
L 190.596922 261.099335 
L 190.705176 254.138208 
L 190.813431 255.598058 
L 191.029939 244.851392 
L 191.138194 251.892734 
L 191.354702 243.074544 
L 191.462956 257.771355 
L 191.571211 254.053053 
L 191.679465 256.123321 
L 191.787719 244.547405 
L 191.895973 264.854731 
L 192.004228 238.492458 
L 192.220736 258.323557 
L 192.32899 251.576288 
L 192.437245 260.216683 
L 192.545499 257.22876 
L 192.762008 262.714416 
L 192.870262 252.799414 
L 192.978516 255.673893 
L 193.08677 233.757012 
L 193.195025 238.623945 
L 193.303279 250.886487 
L 193.411533 246.917118 
L 193.628042 250.059258 
L 193.84455 242.933355 
L 193.952804 262.688657 
L 194.061059 253.487331 
L 194.169313 269.318863 
L 194.385822 250.434471 
L 194.494076 257.613751 
L 194.60233 237.813903 
L 194.818839 261.770985 
L 194.927093 218.39902 
L 195.143601 245.398476 
L 195.251856 248.689239 
L 195.36011 243.523929 
L 195.468364 255.371613 
L 195.576618 246.616968 
L 195.684873 254.016846 
L 195.793127 235.440481 
L 196.009636 247.674089 
L 196.11789 269.412038 
L 196.334398 247.092758 
L 196.442653 253.323065 
L 196.550907 235.824368 
L 196.767415 251.824936 
L 196.87567 236.498806 
L 196.983924 247.848828 
L 197.092178 234.342926 
L 197.200432 255.324057 
L 197.525195 237.007739 
L 197.63345 259.138174 
L 197.741704 236.145771 
L 197.849958 238.632034 
L 197.958212 223.45519 
L 198.174721 247.999863 
L 198.282975 249.40434 
L 198.391229 239.564185 
L 198.715992 252.796478 
L 198.824246 242.534156 
L 199.040755 260.68401 
L 199.149009 253.692591 
L 199.257264 256.8597 
L 199.473772 246.023161 
L 199.582026 255.500359 
L 199.690281 252.485353 
L 199.798535 256.364203 
L 199.906789 249.988634 
L 200.015043 265.455298 
L 200.123298 262.482556 
L 200.339806 243.986215 
L 200.556315 262.301273 
L 200.664569 243.633689 
L 200.772823 254.644832 
L 200.989332 248.193062 
L 201.097586 244.506852 
L 201.20584 252.504212 
L 201.314095 236.219077 
L 201.530603 253.177131 
L 201.638857 228.791734 
L 201.855366 274.283045 
L 202.071874 239.414085 
L 202.180129 262.248141 
L 202.288383 254.681133 
L 202.396637 256.56993 
L 202.504892 261.541005 
L 202.829654 243.669472 
L 202.937909 258.760575 
L 203.046163 234.123771 
L 203.154417 244.143021 
L 203.262671 266.972583 
L 203.370926 247.069044 
L 203.587434 258.965726 
L 203.912197 243.573207 
L 204.020451 247.297866 
L 204.128706 236.505987 
L 204.345214 239.549994 
L 204.453468 268.706531 
L 204.561723 237.210004 
L 204.669977 254.461911 
L 204.778231 237.904277 
L 204.886485 259.108731 
L 205.102994 240.984662 
L 205.211248 242.324482 
L 205.319502 240.020352 
L 205.427757 240.200489 
L 205.536011 259.293112 
L 205.644265 216.264876 
L 205.860774 267.664599 
L 206.077282 225.034272 
L 206.185537 258.040245 
L 206.293791 247.134525 
L 206.402045 253.686115 
L 206.510299 236.885656 
L 206.618554 263.466022 
L 206.726808 251.844559 
L 206.835062 261.973135 
L 207.051571 253.438078 
L 207.159825 262.216411 
L 207.268079 259.657652 
L 207.376334 276.849099 
L 207.484588 245.899015 
L 207.592842 245.921108 
L 207.701096 244.554331 
L 207.809351 252.864937 
L 207.917605 276.865433 
L 208.025859 253.262702 
L 208.134113 274.039188 
L 208.350622 252.16328 
L 208.56713 235.162321 
L 208.783639 254.123609 
L 208.891893 221.659916 
L 209.000148 238.392756 
L 209.108402 233.946256 
L 209.216656 250.334124 
L 209.32491 244.362116 
L 209.433165 252.028194 
L 209.541419 239.871125 
L 209.649673 270.529742 
L 209.866182 251.803191 
L 209.974436 264.279863 
L 210.08269 237.010956 
L 210.190944 258.371086 
L 210.299199 246.554577 
L 210.407453 249.88226 
L 210.515707 264.532356 
L 210.623962 263.734913 
L 210.948724 239.555969 
L 211.056979 267.687464 
L 211.165233 245.37898 
L 211.273487 256.131986 
L 211.381741 232.416275 
L 211.59825 261.540258 
L 211.814758 239.087241 
L 211.923013 235.932371 
L 212.031267 253.381891 
L 212.139521 247.593874 
L 212.247776 258.84775 
L 212.464284 248.355139 
L 212.572538 225.932889 
L 212.680793 257.38835 
L 212.789047 245.249088 
L 212.897301 253.718741 
L 213.005555 239.060285 
L 213.11381 271.982369 
L 213.222064 256.122964 
L 213.438572 266.03581 
L 213.546827 243.133914 
L 213.655081 263.460272 
L 213.763335 257.506784 
L 213.979844 231.048615 
L 214.196352 257.340379 
L 214.304607 260.237791 
L 214.521115 256.675243 
L 214.737624 242.651461 
L 214.845878 239.892811 
L 214.954132 255.645477 
L 215.062386 255.003741 
L 215.170641 259.374867 
L 215.278895 251.586948 
L 215.387149 232.118942 
L 215.495404 250.008808 
L 215.603658 221.929969 
L 215.820166 257.88866 
L 216.036675 265.600977 
L 216.144929 247.548593 
L 216.253183 254.955473 
L 216.361438 230.179178 
L 216.577946 255.373268 
L 216.6862 261.028728 
L 216.794455 244.810635 
L 216.902709 263.108994 
L 217.010963 241.637525 
L 217.119218 244.793312 
L 217.227472 229.986911 
L 217.335726 248.586583 
L 217.552235 232.934586 
L 217.660489 270.947413 
L 217.876997 237.543051 
L 217.985252 252.762969 
L 218.093506 242.029331 
L 218.20176 259.125969 
L 218.310014 247.714294 
L 218.418269 265.869677 
L 218.743032 247.064987 
L 218.95954 239.536889 
L 219.067794 249.216352 
L 219.284303 239.990196 
L 219.392557 257.43627 
L 219.500811 252.109325 
L 219.609066 255.839857 
L 219.71732 254.560408 
L 219.825574 251.087733 
L 219.933828 236.353629 
L 220.258591 263.977256 
L 220.366846 255.217141 
L 220.4751 258.025605 
L 220.583354 232.397619 
L 220.799863 247.587092 
L 220.908117 247.443604 
L 221.124625 264.85639 
L 221.23288 262.87275 
L 221.449388 250.186315 
L 221.557642 266.054653 
L 221.665897 240.969486 
L 221.882405 250.95869 
L 221.99066 253.102348 
L 222.098914 239.897903 
L 222.315422 254.307914 
L 222.423677 248.942929 
L 222.531931 264.294249 
L 222.856694 244.621424 
L 222.964948 253.234846 
L 223.181456 242.198732 
L 223.289711 241.075851 
L 223.397965 238.683026 
L 223.506219 267.073469 
L 223.722728 242.35665 
L 223.830982 268.811402 
L 223.939236 239.160369 
L 224.263999 252.119909 
L 224.480508 264.592829 
L 224.588762 247.481653 
L 224.697016 254.004369 
L 224.80527 240.548891 
L 225.021779 254.527867 
L 225.238288 251.249775 
L 225.346542 251.201363 
L 225.454796 233.410681 
L 225.56305 237.117864 
L 225.671305 252.582331 
L 225.887813 251.011414 
L 226.104322 259.061065 
L 226.212576 226.65944 
L 226.429084 258.870692 
L 226.537339 265.437967 
L 226.862102 231.972669 
L 226.970356 241.329719 
L 227.07861 265.164124 
L 227.186864 248.827593 
L 227.295119 254.157194 
L 227.511627 247.132428 
L 227.619881 250.517962 
L 227.728136 258.899269 
L 227.83639 258.110844 
L 227.944644 241.538264 
L 228.052898 251.377019 
L 228.161153 247.511138 
L 228.269407 262.744538 
L 228.377661 262.353891 
L 228.485916 237.302695 
L 228.59417 260.447702 
L 228.702424 246.757037 
L 228.810678 258.204639 
L 228.918933 236.830012 
L 229.135441 274.231824 
L 229.243695 246.101016 
L 229.35195 251.134737 
L 229.460204 250.390251 
L 229.568458 265.600714 
L 229.784967 244.257041 
L 230.001475 244.551963 
L 230.10973 242.98899 
L 230.217984 265.388091 
L 230.326238 245.768317 
L 230.434492 246.043734 
L 230.542747 268.773391 
L 230.651001 265.034516 
L 230.867509 237.771194 
L 230.975764 247.615712 
L 231.192272 239.841784 
L 231.300526 260.620804 
L 231.517035 244.687389 
L 231.625289 263.609516 
L 231.733544 258.380439 
L 231.841798 270.383605 
L 231.950052 239.526441 
L 232.058306 248.212295 
L 232.166561 239.813767 
L 232.274815 246.645181 
L 232.383069 236.158595 
L 232.491323 245.028287 
L 232.599578 264.591149 
L 232.707832 251.61404 
L 232.816086 256.205021 
L 232.92434 255.576839 
L 233.032595 246.839238 
L 233.140849 261.798285 
L 233.249103 245.541948 
L 233.357358 247.705951 
L 233.465612 242.744153 
L 233.573866 250.758148 
L 233.68212 225.532595 
L 233.898629 261.672433 
L 234.006883 260.375797 
L 234.115137 242.930724 
L 234.223392 251.117193 
L 234.331646 250.899515 
L 234.4399 246.204529 
L 234.548154 257.142061 
L 234.656409 251.866508 
L 234.764663 258.999709 
L 234.872917 258.892224 
L 234.981172 238.56489 
L 235.089426 262.255347 
L 235.19768 256.834051 
L 235.305934 230.54435 
L 235.414189 244.856968 
L 235.522443 226.184253 
L 235.738951 267.888638 
L 235.847206 259.625277 
L 235.95546 273.825589 
L 236.171968 246.791182 
L 236.280223 260.058549 
L 236.388477 258.910506 
L 236.496731 234.149005 
L 236.604986 258.786674 
L 236.71324 241.474014 
L 236.821494 255.797878 
L 236.929748 255.413829 
L 237.038003 256.300301 
L 237.146257 240.173924 
L 237.362765 263.390955 
L 237.47102 266.537627 
L 237.579274 261.152683 
L 237.687528 262.396896 
L 237.795782 266.145922 
L 237.904037 239.356378 
L 238.120545 258.600948 
L 238.337054 250.173702 
L 238.553562 272.131493 
L 238.770071 262.652216 
L 238.878325 263.311097 
L 238.986579 267.975104 
L 239.203088 230.27349 
L 239.311342 257.472443 
L 239.527851 230.073645 
L 239.636105 257.958885 
L 239.744359 248.264722 
L 239.852614 252.025053 
L 239.960868 231.373141 
L 240.069122 240.45064 
L 240.177376 229.972593 
L 240.285631 239.23561 
L 240.393885 260.076822 
L 240.502139 256.161633 
L 240.610393 247.347364 
L 240.718648 265.12624 
L 240.826902 262.133404 
L 240.935156 241.215801 
L 241.04341 250.793566 
L 241.151665 243.504926 
L 241.259919 264.867042 
L 241.368173 253.728315 
L 241.476428 254.331348 
L 241.584682 259.019634 
L 241.692936 245.901697 
L 241.80119 259.869317 
L 241.909445 259.340103 
L 242.234207 227.167227 
L 242.342462 263.205254 
L 242.450716 261.781425 
L 242.775479 235.953683 
L 242.991987 244.319466 
L 243.100242 231.032684 
L 243.208496 231.628817 
L 243.31675 272.932467 
L 243.425004 258.989423 
L 243.533259 267.505633 
L 243.641513 242.007145 
L 243.749767 251.787184 
L 243.858021 243.093479 
L 243.966276 250.572579 
L 244.07453 249.512191 
L 244.182784 246.054106 
L 244.291038 251.5802 
L 244.399293 243.606266 
L 244.615801 262.777032 
L 244.83231 252.261344 
L 244.940564 251.218686 
L 245.157073 242.245566 
L 245.265327 261.699016 
L 245.373581 232.731397 
L 245.481835 272.248777 
L 245.59009 244.347746 
L 245.806598 265.384674 
L 245.914852 263.675544 
L 246.023107 256.569124 
L 246.131361 265.861308 
L 246.239615 246.472376 
L 246.34787 247.845977 
L 246.456124 262.061727 
L 246.564378 247.560196 
L 246.672632 257.19829 
L 246.780887 252.131859 
L 246.889141 265.182571 
L 246.997395 246.470721 
L 247.105649 251.558736 
L 247.213904 250.286552 
L 247.322158 268.362955 
L 247.430412 262.948725 
L 247.538666 242.871083 
L 247.755175 255.009029 
L 247.863429 250.129763 
L 248.079938 256.111413 
L 248.188192 250.326765 
L 248.296446 256.652394 
L 248.404701 243.884382 
L 248.512955 257.911627 
L 248.729463 242.334846 
L 248.837718 249.344249 
L 248.945972 247.363974 
L 249.16248 269.952226 
L 249.487243 246.549595 
L 249.595498 244.953037 
L 249.812006 246.427095 
L 249.92026 253.670346 
L 250.028515 251.652386 
L 250.136769 262.551797 
L 250.461532 228.505147 
L 250.569786 239.87514 
L 250.67804 269.389839 
L 250.786294 254.005014 
L 251.002803 259.451025 
L 251.219312 242.127896 
L 251.327566 268.678366 
L 251.544074 235.321852 
L 251.760583 257.307863 
L 251.868837 233.445972 
L 252.085346 254.204121 
L 252.1936 232.03254 
L 252.410108 261.713941 
L 252.518363 223.177616 
L 252.626617 254.827542 
L 252.734871 242.491549 
L 252.843126 256.65713 
L 253.059634 236.741183 
L 253.167888 272.700543 
L 253.492651 250.27663 
L 253.600905 248.199436 
L 253.70916 261.46618 
L 253.925668 246.752827 
L 254.033922 258.403407 
L 254.142177 256.934857 
L 254.250431 242.116616 
L 254.358685 252.544579 
L 254.46694 248.550452 
L 254.575194 240.345701 
L 254.683448 263.785367 
L 254.791702 233.78878 
L 255.008211 263.602064 
L 255.116465 263.343977 
L 255.224719 244.977804 
L 255.332974 260.731794 
L 255.441228 252.787286 
L 255.549482 229.824003 
L 255.657736 262.961613 
L 255.874245 251.408465 
L 255.982499 254.047239 
L 256.090754 247.719233 
L 256.199008 271.03999 
L 256.307262 248.770905 
L 256.415516 253.664981 
L 256.523771 265.103685 
L 256.632025 246.600163 
L 256.848533 256.542507 
L 256.956788 247.034865 
L 257.065042 247.572485 
L 257.173296 257.339352 
L 257.28155 246.588272 
L 257.389805 255.579258 
L 257.606313 241.865914 
L 257.714568 235.907341 
L 257.822822 262.568823 
L 257.931076 248.83019 
L 258.03933 260.180526 
L 258.147585 249.961109 
L 258.255839 254.131112 
L 258.364093 248.136324 
L 258.472347 253.384123 
L 258.580602 246.234031 
L 258.79711 258.095753 
L 258.905364 256.359425 
L 259.013619 252.194386 
L 259.121873 254.736726 
L 259.338382 237.758599 
L 259.55489 246.407481 
L 259.663144 260.562134 
L 259.771399 257.462038 
L 259.879653 258.692285 
L 260.096161 225.543137 
L 260.31267 260.776706 
L 260.420924 243.691522 
L 260.637433 257.206897 
L 260.745687 260.248748 
L 260.853941 251.122251 
L 260.962196 259.944537 
L 261.07045 229.766569 
L 261.286958 261.468573 
L 261.395213 250.857324 
L 261.503467 258.539698 
L 261.719975 238.76145 
L 261.82823 247.339946 
L 261.936484 235.348188 
L 262.044738 238.475449 
L 262.369501 255.761789 
L 262.477755 249.985986 
L 262.694264 262.780707 
L 262.802518 256.104445 
L 262.910772 274.242216 
L 263.019027 262.396502 
L 263.127281 262.534495 
L 263.235535 251.009224 
L 263.452044 258.536278 
L 263.560298 239.544859 
L 263.668552 253.859276 
L 263.776806 245.453407 
L 263.993315 261.545715 
L 264.209824 240.422462 
L 264.318078 262.220188 
L 264.534586 243.99971 
L 264.751095 259.721652 
L 264.859349 247.549238 
L 264.967603 254.666908 
L 265.075858 252.019681 
L 265.40062 234.254656 
L 265.617129 254.692421 
L 265.725383 267.834552 
L 265.941892 245.60304 
L 266.1584 265.209022 
L 266.374909 224.44812 
L 266.483163 263.088199 
L 266.699672 240.413456 
L 266.91618 262.782549 
L 267.024434 255.443917 
L 267.132689 256.450045 
L 267.240943 235.474787 
L 267.349197 260.872253 
L 267.457451 258.332256 
L 267.565706 270.320076 
L 267.67396 257.539656 
L 267.782214 261.896977 
L 267.998723 234.812664 
L 268.215231 250.681091 
L 268.323486 243.139694 
L 268.43174 250.387077 
L 268.648248 231.490896 
L 268.756503 253.716763 
L 268.864757 252.176469 
L 268.973011 260.790901 
L 269.081265 246.725421 
L 269.18952 262.128651 
L 269.297774 245.05857 
L 269.406028 249.330211 
L 269.514283 245.914105 
L 269.622537 238.868138 
L 269.839045 264.910362 
L 269.9473 249.683671 
L 270.055554 254.683263 
L 270.163808 252.286704 
L 270.272062 258.655153 
L 270.380317 254.471586 
L 270.488571 260.047753 
L 270.705079 239.889518 
L 270.813334 253.497303 
L 270.921588 234.587619 
L 271.138097 260.413816 
L 271.246351 262.664879 
L 271.354605 250.495521 
L 271.462859 273.114009 
L 271.679368 248.76319 
L 271.787622 264.725331 
L 271.895876 237.849584 
L 272.004131 239.643339 
L 272.112385 254.695154 
L 272.220639 238.450114 
L 272.328893 248.612665 
L 272.437148 234.095092 
L 272.545402 234.457914 
L 272.761911 271.646317 
L 272.870165 246.048411 
L 272.978419 260.163403 
L 273.086673 253.759871 
L 273.194928 238.269399 
L 273.303182 245.717137 
L 273.411436 242.021973 
L 273.736199 260.32272 
L 273.844453 248.131732 
L 273.952707 267.519956 
L 274.169216 251.638917 
L 274.27747 259.060594 
L 274.385725 255.786038 
L 274.493979 255.839051 
L 274.602233 243.584436 
L 274.710487 247.296771 
L 274.818742 243.275162 
L 274.926996 244.902266 
L 275.03525 232.471528 
L 275.143504 251.939118 
L 275.251759 243.281044 
L 275.360013 265.487945 
L 275.468267 261.393255 
L 275.576521 265.046764 
L 275.901284 234.593314 
L 276.009539 252.847224 
L 276.117793 218.542169 
L 276.226047 249.227708 
L 276.334301 245.164358 
L 276.55081 247.72885 
L 276.659064 259.736963 
L 276.983827 235.122694 
L 277.30859 268.20334 
L 277.416844 256.37011 
L 277.525098 267.876081 
L 277.633353 249.210742 
L 277.741607 271.720302 
L 277.849861 255.686489 
L 277.958115 265.493169 
L 278.06637 257.970784 
L 278.174624 259.61039 
L 278.282878 254.683781 
L 278.391132 230.726406 
L 278.499387 252.076945 
L 278.715895 250.696343 
L 278.824149 237.715465 
L 278.932404 255.079398 
L 279.040658 253.850721 
L 279.148912 249.207092 
L 279.257167 249.466944 
L 279.365421 248.561078 
L 279.473675 261.332901 
L 279.581929 250.310758 
L 279.798438 254.719513 
L 279.906692 243.442814 
L 280.123201 261.931674 
L 280.231455 247.277733 
L 280.339709 256.63424 
L 280.447963 235.963588 
L 280.556218 245.737473 
L 280.664472 243.530541 
L 280.880981 256.7601 
L 280.989235 238.31193 
L 281.097489 248.620024 
L 281.313998 231.591108 
L 281.530506 258.276969 
L 281.63876 244.95959 
L 281.747015 247.143258 
L 281.855269 224.240245 
L 282.071777 260.324681 
L 282.180032 232.224764 
L 282.39654 265.871056 
L 282.613049 270.582576 
L 282.721303 237.150388 
L 282.829557 261.010662 
L 282.937812 223.185043 
L 283.15432 253.296558 
L 283.262574 256.082012 
L 283.370829 250.389801 
L 283.479083 261.449285 
L 283.587337 250.666119 
L 283.695591 251.563268 
L 283.803846 256.984483 
L 283.9121 249.432442 
L 284.020354 259.437611 
L 284.128609 259.430464 
L 284.236863 238.148139 
L 284.345117 251.940578 
L 284.453371 248.944329 
L 284.561626 250.931802 
L 284.778134 248.327835 
L 284.994643 257.98495 
L 285.102897 259.304617 
L 285.211151 256.688033 
L 285.319405 237.89158 
L 285.42766 261.590266 
L 285.535914 246.504925 
L 285.644168 257.188963 
L 285.752423 231.112042 
L 285.968931 256.957917 
L 286.077185 264.516786 
L 286.18544 245.314637 
L 286.293694 267.278496 
L 286.401948 247.445641 
L 286.510202 256.463481 
L 286.726711 230.509976 
L 286.834965 259.260732 
L 286.943219 256.529072 
L 287.051474 257.041035 
L 287.159728 260.250874 
L 287.267982 229.221607 
L 287.484491 260.876501 
L 287.592745 244.196848 
L 287.917508 257.016201 
L 288.134016 241.502125 
L 288.242271 260.191959 
L 288.350525 248.264773 
L 288.458779 263.461286 
L 288.567033 252.509143 
L 288.675288 259.237282 
L 288.783542 258.034932 
L 288.891796 251.077022 
L 289.000051 235.781243 
L 289.216559 257.219 
L 289.324813 232.850832 
L 289.433068 273.156913 
L 289.75783 238.929799 
L 289.866085 252.992359 
L 289.974339 230.118043 
L 290.190847 258.945661 
L 290.299102 247.512539 
L 290.407356 255.660967 
L 290.51561 251.658888 
L 290.623865 252.715287 
L 290.732119 258.68415 
L 290.948627 243.337986 
L 291.056882 262.005858 
L 291.489899 239.930172 
L 291.706407 259.122463 
L 291.814661 262.865009 
L 292.03117 247.206125 
L 292.139424 267.482484 
L 292.247679 251.114384 
L 292.355933 254.297432 
L 292.464187 251.708208 
L 292.680696 228.938974 
L 292.897204 262.727279 
L 293.005458 249.4824 
L 293.221967 261.693766 
L 293.330221 249.817196 
L 293.438475 250.039694 
L 293.54673 239.64339 
L 293.654984 256.584648 
L 293.763238 251.648397 
L 293.871493 260.487636 
L 293.979747 250.628477 
L 294.088001 255.429938 
L 294.30451 246.076453 
L 294.412764 253.968595 
L 294.521018 247.66909 
L 294.629272 222.471469 
L 294.737527 261.527417 
L 294.954035 252.16642 
L 295.062289 264.505205 
L 295.170544 256.312922 
L 295.278798 268.580637 
L 295.387052 249.896519 
L 295.495307 253.993344 
L 295.603561 240.326698 
L 295.820069 262.76692 
L 296.036578 243.23157 
L 296.144832 263.703981 
L 296.253086 241.939576 
L 296.361341 257.287595 
L 296.469595 238.309001 
L 296.577849 251.455138 
L 296.686103 222.461301 
L 296.902612 258.060123 
L 297.010866 248.352406 
L 297.119121 248.674496 
L 297.335629 251.833661 
L 297.443883 250.919537 
L 297.660392 267.679528 
L 297.8769 234.261311 
L 298.093409 251.957111 
L 298.309917 249.918756 
L 298.418172 253.237435 
L 298.526426 242.817103 
L 298.742935 252.419762 
L 298.851189 236.814472 
L 299.067697 258.020122 
L 299.284206 248.827067 
L 299.39246 258.723837 
L 299.500714 257.573563 
L 299.608969 243.602132 
L 299.825477 254.980078 
L 299.933731 253.188063 
L 300.041986 259.760346 
L 300.15024 250.848947 
L 300.258494 261.89741 
L 300.366749 250.461605 
L 300.475003 258.453419 
L 300.583257 244.963138 
L 300.691511 259.281777 
L 301.016274 240.877262 
L 301.232783 257.993004 
L 301.341037 248.169357 
L 301.449291 256.380406 
L 301.557545 252.387459 
L 301.6658 255.283717 
L 301.774054 231.646318 
L 302.098817 263.873687 
L 302.207071 243.169162 
L 302.315325 268.945262 
L 302.42358 260.603574 
L 302.531834 265.176672 
L 302.640088 255.067023 
L 302.748342 255.209044 
L 302.856597 254.27309 
L 303.073105 254.686192 
L 303.181359 241.356073 
L 303.289614 253.310656 
L 303.397868 245.557038 
L 303.506122 264.539333 
L 303.614377 223.364866 
L 303.722631 262.098588 
L 303.939139 239.70231 
L 304.047394 259.427642 
L 304.155648 233.044541 
L 304.372156 264.159553 
L 304.480411 259.857808 
L 304.588665 262.03354 
L 304.805173 247.310817 
L 305.129936 256.801629 
L 305.238191 250.811814 
L 305.346445 256.844482 
L 305.454699 250.320289 
L 305.562953 230.649739 
L 305.671208 257.920224 
L 305.779462 241.977999 
L 305.887716 250.828755 
L 305.99597 243.836844 
L 306.104225 248.112016 
L 306.212479 246.381781 
L 306.320733 242.699942 
L 306.537242 230.17389 
L 306.75375 265.18339 
L 306.970259 236.107968 
L 307.186767 266.492817 
L 307.295022 263.155594 
L 307.403276 247.929137 
L 307.836293 273.106171 
L 308.052801 236.7816 
L 308.161056 234.377215 
L 308.26931 261.362739 
L 308.485819 243.922695 
L 308.594073 252.167031 
L 308.702327 251.691327 
L 308.810581 254.516298 
L 309.02709 247.241084 
L 309.135344 246.357252 
L 309.351853 269.575392 
L 309.676615 232.894339 
L 309.78487 263.246957 
L 309.893124 257.350742 
L 310.001378 241.14617 
L 310.109633 268.070405 
L 310.326141 238.493188 
L 310.650904 261.734234 
L 310.759158 246.514338 
L 310.867412 261.124479 
L 310.975667 233.568743 
L 311.192175 265.685262 
L 311.408684 242.260572 
L 311.516938 255.084584 
L 311.625192 240.404799 
L 311.733447 255.973526 
L 311.841701 243.812417 
L 311.949955 253.01233 
L 312.058209 229.037132 
L 312.166464 265.795094 
L 312.274718 257.416791 
L 312.382972 269.76453 
L 312.491226 246.518981 
L 312.599481 254.617766 
L 312.707735 232.765228 
L 312.815989 256.735546 
L 312.924243 255.056754 
L 313.032498 233.691497 
L 313.140752 264.646364 
L 313.357261 241.788678 
L 313.573769 255.82413 
L 313.682023 229.406115 
L 313.898532 255.778671 
L 314.006786 242.893778 
L 314.223295 246.371655 
L 314.439803 231.006755 
L 314.548057 259.237689 
L 314.656312 236.172421 
L 314.87282 261.746117 
L 314.981075 252.509992 
L 315.089329 254.014715 
L 315.305837 263.432917 
L 315.522346 253.488078 
L 315.738854 242.265461 
L 315.847109 260.733662 
L 316.063617 240.746563 
L 316.171871 248.295183 
L 316.280126 238.103715 
L 316.38838 251.169841 
L 316.496634 241.546752 
L 316.713143 255.440437 
L 316.821397 255.15997 
L 316.929651 258.683306 
L 317.037906 246.351133 
L 317.14616 253.83451 
L 317.254414 249.18511 
L 317.362668 256.909827 
L 317.470923 247.084814 
L 317.579177 248.571424 
L 317.687431 261.217315 
L 317.90394 245.56225 
L 318.012194 237.575066 
L 318.228703 256.942954 
L 318.336957 233.9404 
L 318.445211 261.382048 
L 318.66172 245.819895 
L 318.769974 255.071445 
L 318.878228 242.111286 
L 318.986482 252.100872 
L 319.094737 244.849168 
L 319.311245 256.173558 
L 319.419499 255.845807 
L 319.527754 251.721584 
L 319.636008 236.668224 
L 319.744262 251.524336 
L 319.960771 246.42791 
L 320.069025 256.647387 
L 320.177279 249.666467 
L 320.393788 261.370976 
L 320.502042 261.376013 
L 320.610296 237.282207 
L 320.826805 246.444215 
L 320.935059 237.140814 
L 321.043313 252.952604 
L 321.151568 250.841224 
L 321.259822 245.506657 
L 321.476331 256.819427 
L 321.692839 245.596955 
L 321.801093 246.896842 
L 321.909348 234.02339 
L 322.23411 275.486451 
L 322.450619 255.424218 
L 322.558873 229.684835 
L 322.667127 255.337943 
L 322.775382 242.679521 
L 322.883636 258.820064 
L 322.99189 247.178243 
L 323.100145 257.10879 
L 323.208399 249.539257 
L 323.316653 256.86363 
L 323.424907 256.474268 
L 323.641416 246.708293 
L 323.74967 259.86231 
L 323.857924 241.547864 
L 323.966179 252.434403 
L 324.074433 238.018671 
L 324.182687 253.452558 
L 324.290941 241.566892 
L 324.399196 264.990967 
L 324.50745 257.775097 
L 324.723959 226.889815 
L 324.940467 256.807231 
L 325.048721 261.298221 
L 325.156976 253.641378 
L 325.26523 264.939092 
L 325.373484 246.057399 
L 325.481738 262.170078 
L 325.589993 246.584173 
L 325.806501 278.73375 
L 325.914755 249.948327 
L 326.02301 264.805593 
L 326.239518 252.061948 
L 326.456027 254.557836 
L 326.564281 265.711666 
L 326.672535 254.662121 
L 326.78079 263.495678 
L 326.889044 233.734961 
L 327.105552 259.105913 
L 327.213807 217.288344 
L 327.430315 248.988854 
L 327.538569 248.236162 
L 327.646824 250.700332 
L 327.863332 261.775411 
L 327.971587 257.630437 
L 328.079841 237.654271 
L 328.404604 264.817276 
L 328.512858 252.099921 
L 328.621112 267.226782 
L 328.729366 257.348544 
L 328.837621 262.927973 
L 328.945875 258.639277 
L 329.162383 242.756765 
L 329.270638 266.504712 
L 329.378892 247.477723 
L 329.487146 249.602964 
L 329.595401 242.472775 
L 329.703655 251.840366 
L 329.811909 235.127684 
L 330.028418 260.115342 
L 330.136672 268.099165 
L 330.244926 249.708862 
L 330.35318 260.510739 
L 330.461435 259.147043 
L 330.569689 269.017859 
L 330.677943 238.808912 
L 330.786197 255.645537 
L 330.894452 247.00055 
L 331.002706 257.798956 
L 331.219215 230.263704 
L 331.435723 259.440403 
L 331.543977 267.433778 
L 331.652232 259.914703 
L 331.760486 261.174873 
L 331.86874 256.020402 
L 331.976994 238.840248 
L 332.193503 250.454145 
L 332.301757 244.955465 
L 332.410011 252.669064 
L 332.518266 242.251677 
L 332.62652 270.911057 
L 332.734774 250.606893 
L 332.843029 262.24377 
L 333.059537 253.356149 
L 333.167791 244.535726 
L 333.276046 253.323005 
L 333.3843 245.441108 
L 333.492554 262.630263 
L 333.600808 258.231816 
L 333.709063 261.694229 
L 333.817317 258.372402 
L 333.925571 245.129262 
L 334.033825 256.240329 
L 334.14208 239.284608 
L 334.250334 261.988642 
L 334.358588 256.462276 
L 334.466843 244.696649 
L 334.683351 259.385277 
L 334.791605 242.329363 
L 334.89986 251.662045 
L 335.008114 229.972109 
L 335.116368 253.757792 
L 335.332877 232.603788 
L 335.441131 261.558629 
L 335.549385 259.379069 
L 335.657639 244.421867 
L 335.874148 257.486091 
L 335.982402 253.418514 
L 336.090657 261.099878 
L 336.307165 240.461767 
L 336.415419 258.625065 
L 336.523674 231.94573 
L 336.631928 255.986792 
L 336.740182 229.894059 
L 336.956691 262.005014 
L 337.064945 255.329914 
L 337.173199 256.900211 
L 337.281453 251.911253 
L 337.389708 260.21911 
L 337.606216 254.392857 
L 337.714471 254.855839 
L 337.822725 250.371783 
L 338.039233 262.91907 
L 338.147488 264.620261 
L 338.363996 253.407557 
L 338.47225 253.334175 
L 338.580505 257.536855 
L 338.688759 238.214341 
L 338.905267 254.691742 
L 339.013522 234.978101 
L 339.23003 261.201974 
L 339.338285 261.172976 
L 339.446539 262.73126 
L 339.663047 259.014019 
L 339.879556 239.613972 
L 339.98781 247.446353 
L 340.096064 240.227378 
L 340.312573 263.269746 
L 340.420827 248.859056 
L 340.637336 267.658038 
L 340.74559 252.865956 
L 340.853844 259.869138 
L 340.962099 249.365629 
L 341.070353 259.941986 
L 341.286861 235.616375 
L 341.50337 258.827957 
L 341.611624 251.149793 
L 341.719878 264.021849 
L 341.828133 224.503874 
L 342.044641 257.685733 
L 342.152895 253.365621 
L 342.26115 247.190092 
L 342.477658 248.838406 
L 342.585913 263.394511 
L 342.694167 245.57381 
L 342.802421 248.468591 
L 342.910675 233.869649 
L 343.127184 265.486672 
L 343.343692 259.332723 
L 343.560201 247.500741 
L 343.668455 260.874702 
L 343.776709 257.41618 
L 343.884964 245.601801 
L 343.993218 266.57139 
L 344.101472 242.201338 
L 344.209726 260.956686 
L 344.317981 255.516196 
L 344.534489 241.197951 
L 344.642744 253.330627 
L 344.750998 247.784977 
L 344.859252 235.311539 
L 345.075761 260.910281 
L 345.184015 255.935196 
L 345.292269 259.370059 
L 345.400523 247.422538 
L 345.617032 257.799635 
L 345.725286 256.445878 
L 345.83354 260.621173 
L 345.941795 249.210928 
L 346.050049 253.276757 
L 346.158303 262.277406 
L 346.266558 242.102578 
L 346.483066 257.705407 
L 346.59132 263.84026 
L 346.699575 263.785448 
L 346.807829 240.024502 
L 347.024337 254.762299 
L 347.132592 254.880317 
L 347.240846 247.594383 
L 347.3491 268.768625 
L 347.457354 239.432078 
L 347.565609 245.060217 
L 347.673863 242.073466 
L 347.890372 250.603863 
L 347.998626 221.817494 
L 348.215134 254.647684 
L 348.323389 256.978907 
L 348.431643 255.633731 
L 348.756406 261.583506 
L 348.86466 244.705679 
L 348.972914 247.74546 
L 349.081168 258.917322 
L 349.297677 228.13018 
L 349.514186 246.740342 
L 349.62244 251.145134 
L 349.730694 236.058163 
L 349.947203 258.642379 
L 350.055457 262.27003 
L 350.163711 211.620433 
L 350.271965 271.742874 
L 350.38022 241.240609 
L 350.488474 259.523139 
L 350.704982 230.884375 
L 350.921491 250.696614 
L 351.029745 244.099429 
L 351.138 264.408753 
L 351.246254 239.13107 
L 351.354508 244.460095 
L 351.571017 261.635373 
L 351.679271 248.130909 
L 351.787525 258.089362 
L 351.895779 248.86077 
L 352.004034 259.292679 
L 352.220542 243.699696 
L 352.437051 241.091171 
L 352.545305 233.188505 
L 352.653559 257.789373 
L 352.761814 235.72167 
L 352.870068 237.796232 
L 352.978322 251.870437 
L 353.086576 247.049336 
L 353.194831 252.576237 
L 353.303085 246.657538 
L 353.411339 258.429862 
L 353.519593 232.583579 
L 353.627848 234.559738 
L 353.736102 247.135501 
L 353.844356 243.310402 
L 353.95261 244.618886 
L 354.169119 224.712046 
L 354.385628 247.51455 
L 354.493882 253.85841 
L 354.818645 240.395955 
L 354.926899 246.713589 
L 355.143407 241.463609 
L 355.251662 268.170977 
L 355.46817 235.539011 
L 355.576424 262.885629 
L 355.684679 245.248222 
L 355.792933 254.465645 
L 355.901187 240.97255 
L 356.117696 255.135084 
L 356.22595 255.495563 
L 356.334204 269.592163 
L 356.550713 240.817637 
L 356.658967 243.168194 
L 356.767221 248.213475 
L 356.98373 264.443645 
L 357.091984 251.650417 
L 357.200238 255.626109 
L 357.308493 263.939537 
L 357.525001 250.725395 
L 357.633256 244.944728 
L 357.849764 257.596148 
L 357.958018 228.273838 
L 358.066273 261.371298 
L 358.282781 250.309875 
L 358.49929 258.084134 
L 358.607544 228.75579 
L 358.715798 258.090814 
L 358.932307 243.655671 
L 359.148815 254.607055 
L 359.25707 265.734587 
L 359.365324 233.485286 
L 359.581832 274.747479 
L 359.690087 253.932718 
L 359.798341 260.046963 
L 359.906595 245.25738 
L 360.014849 254.183259 
L 360.123104 252.594833 
L 360.339612 258.536795 
L 360.447866 239.232988 
L 360.556121 260.38554 
L 360.664375 246.469253 
L 360.880884 249.454281 
L 361.097392 245.309078 
L 361.313901 259.718045 
L 361.422155 268.394375 
L 361.638663 244.866975 
L 361.746918 248.131715 
L 361.963426 267.408762 
L 362.07168 242.748507 
L 362.179935 245.371409 
L 362.288189 256.591157 
L 362.396443 250.193037 
L 362.504698 262.246575 
L 362.612952 255.311513 
L 362.721206 258.12063 
L 362.82946 246.55041 
L 362.937715 259.712957 
L 363.154223 252.607318 
L 363.370732 267.838541 
L 363.58724 244.952324 
L 363.695494 243.969223 
L 363.803749 248.300836 
L 363.912003 265.257083 
L 364.020257 235.393621 
L 364.128512 248.499485 
L 364.236766 243.00134 
L 364.453274 257.077073 
L 364.669783 246.994914 
L 364.886291 250.082318 
L 364.994546 239.737711 
L 365.1028 247.156431 
L 365.319308 269.339703 
L 365.427563 238.591328 
L 365.535817 259.391528 
L 365.644071 240.155811 
L 365.86058 248.227182 
L 366.077088 242.372708 
L 366.185343 261.91789 
L 366.401851 243.48936 
L 366.510105 253.736921 
L 366.61836 248.074102 
L 366.834868 255.271384 
L 366.943122 255.684901 
L 367.051377 261.223468 
L 367.159631 239.613684 
L 367.484394 267.177059 
L 367.592648 241.521951 
L 367.700902 253.020674 
L 367.809157 242.160827 
L 367.917411 249.220002 
L 368.133919 275.804939 
L 368.350428 248.706511 
L 368.458682 245.477418 
L 368.566936 256.177157 
L 368.675191 250.73216 
L 368.783445 233.775175 
L 368.891699 235.578843 
L 368.999954 257.714964 
L 369.108208 236.009717 
L 369.324716 258.816482 
L 369.432971 251.820955 
L 369.541225 255.852758 
L 369.649479 246.161727 
L 369.757733 254.128532 
L 369.974242 232.268661 
L 370.082496 257.409458 
L 370.299005 255.360689 
L 370.407259 240.683637 
L 370.623768 258.078278 
L 370.840276 245.908657 
L 371.056785 250.533358 
L 371.165039 246.146127 
L 371.381547 252.937904 
L 371.489802 249.655391 
L 371.598056 255.337994 
L 371.70631 235.976217 
L 371.814564 237.983457 
L 372.031073 253.606571 
L 372.139327 236.290906 
L 372.355836 278.069942 
L 372.572344 253.058502 
L 372.680599 264.857392 
L 372.897107 247.942513 
L 373.113616 251.473513 
L 373.22187 245.783806 
L 373.438378 258.424107 
L 373.654887 245.135619 
L 373.763141 251.72924 
L 373.871396 241.430185 
L 373.97965 243.78272 
L 374.087904 260.153417 
L 374.304413 251.759803 
L 374.412667 252.421765 
L 374.520921 251.973288 
L 374.629175 244.868239 
L 374.845684 256.680717 
L 375.062192 234.31367 
L 375.278701 260.890548 
L 375.386955 252.225374 
L 375.49521 252.908554 
L 375.603464 235.153783 
L 375.819972 263.07369 
L 376.036481 258.909216 
L 376.144735 247.667256 
L 376.252989 254.130323 
L 376.361244 250.711255 
L 376.469498 256.191551 
L 376.577752 251.69271 
L 376.686006 260.403347 
L 376.794261 247.683298 
L 376.902515 265.360867 
L 377.119024 242.113018 
L 377.335532 275.533871 
L 377.552041 243.504654 
L 377.660295 259.495152 
L 377.768549 248.534037 
L 377.876803 259.874973 
L 377.985058 242.662427 
L 378.201566 260.972201 
L 378.30982 250.308203 
L 378.418075 268.296592 
L 378.634583 257.941655 
L 378.742838 263.565958 
L 378.851092 258.666891 
L 378.959346 245.847063 
L 379.0676 250.138004 
L 379.175855 260.387361 
L 379.284109 250.019766 
L 379.392363 260.32281 
L 379.500617 241.290957 
L 379.717126 258.982684 
L 379.82538 255.272021 
L 380.041889 269.501194 
L 380.258397 240.733552 
L 380.474906 252.610899 
L 380.58316 237.034823 
L 380.691414 263.240625 
L 380.799669 259.675378 
L 380.907923 246.793813 
L 381.016177 258.682745 
L 381.124431 238.707284 
L 381.232686 264.368149 
L 381.449194 230.945145 
L 381.557448 237.561843 
L 381.665703 271.994574 
L 381.773957 247.728986 
L 381.990466 259.587482 
L 382.09872 244.402643 
L 382.206974 261.183127 
L 382.423483 243.45468 
L 382.531737 247.645622 
L 382.639991 223.280934 
L 382.748245 244.265673 
L 382.8565 235.125953 
L 383.073008 246.824062 
L 383.181262 238.28011 
L 383.397771 255.826727 
L 383.506025 253.573122 
L 383.61428 243.76128 
L 383.830788 263.529941 
L 383.939042 240.318278 
L 384.047297 261.118194 
L 384.155551 257.123015 
L 384.263805 233.653388 
L 384.372059 258.4035 
L 384.480314 251.642464 
L 384.588568 231.632849 
L 384.696822 263.064205 
L 384.805076 248.94651 
L 384.913331 252.095889 
L 385.021585 233.89147 
L 385.238094 257.98944 
L 385.346348 255.62644 
L 385.562856 245.687499 
L 385.671111 259.324944 
L 385.779365 254.180628 
L 385.887619 237.567801 
L 385.995873 256.82278 
L 386.212382 248.73429 
L 386.320636 248.835639 
L 386.42889 246.876888 
L 386.537145 235.809269 
L 386.861908 257.550689 
L 386.970162 238.648101 
L 387.078416 241.029773 
L 387.294925 265.912365 
L 387.619687 240.012042 
L 387.727942 246.51584 
L 387.836196 243.224857 
L 387.94445 248.512471 
L 388.052704 237.972041 
L 388.160959 268.037287 
L 388.269213 253.398518 
L 388.377467 255.117091 
L 388.485722 267.24054 
L 388.593976 253.774393 
L 388.810484 262.537156 
L 388.918739 235.61814 
L 389.026993 264.936422 
L 389.135247 250.333292 
L 389.46001 262.819092 
L 389.568264 247.665797 
L 389.676518 269.50627 
L 389.784773 267.672424 
L 389.784773 267.672424 
" clip-path="url(#pb631e34658)" style="fill: none; stroke: #1f77b4; stroke-width: 1.5; stroke-linecap: square"/>
   </g>
   <g id="patch_3">
    <path d="M 48.8975 290.82975 
L 48.8975 24.71775 
" style="fill: none; stroke: #000000; stroke-width: 0.8; stroke-linejoin: miter; stroke-linecap: square"/>
   </g>
   <g id="patch_4">
    <path d="M 406.0175 290.82975 
L 406.0175 24.71775 
" style="fill: none; stroke: #000000; stroke-width: 0.8; stroke-linejoin: miter; stroke-linecap: square"/>
   </g>
   <g id="patch_5">
    <path d="M 48.8975 290.82975 
L 406.0175 290.82975 
" style="fill: none; stroke: #000000; stroke-width: 0.8; stroke-linejoin: miter; stroke-linecap: square"/>
   </g>
   <g id="patch_6">
    <path d="M 48.8975 24.71775 
L 406.0175 24.71775 
" style="fill: none; stroke: #000000; stroke-width: 0.8; stroke-linejoin: miter; stroke-linecap: square"/>
   </g>
   <g id="text_15">
    <!-- Evolución del Score Matching Loss -->
    <g transform="translate(98.942 18.71775) scale(0.144 -0.144)">
     <defs>
      <path id="DejaVuSerif-76" d="M 1581 0 
L 359 2988 
L -19 2988 
L -19 3322 
L 1509 3322 
L 1509 2988 
L 978 2988 
L 1913 703 
L 2847 2988 
L 2350 2988 
L 2350 3322 
L 3597 3322 
L 3597 2988 
L 3225 2988 
L 2003 0 
L 1581 0 
z
" transform="scale(0.015625)"/>
      <path id="DejaVuSerif-6c" d="M 1313 331 
L 1856 331 
L 1856 0 
L 184 0 
L 184 331 
L 738 331 
L 738 4531 
L 184 4531 
L 184 4863 
L 1313 4863 
L 1313 331 
z
" transform="scale(0.015625)"/>
      <path id="DejaVuSerif-75" d="M 2266 3322 
L 3341 3322 
L 3341 331 
L 3884 331 
L 3884 0 
L 2766 0 
L 2766 588 
Q 2606 256 2353 82 
Q 2100 -91 1766 -91 
Q 1213 -91 952 223 
Q 691 538 691 1209 
L 691 2988 
L 172 2988 
L 172 3322 
L 1269 3322 
L 1269 1388 
Q 1269 781 1417 556 
Q 1566 331 1947 331 
Q 2347 331 2556 625 
Q 2766 919 2766 1478 
L 2766 2988 
L 2266 2988 
L 2266 3322 
z
" transform="scale(0.015625)"/>
      <path id="DejaVuSerif-69" d="M 622 4353 
Q 622 4497 726 4603 
Q 831 4709 978 4709 
Q 1122 4709 1226 4603 
Q 1331 4497 1331 4353 
Q 1331 4206 1228 4103 
Q 1125 4000 978 4000 
Q 831 4000 726 4103 
Q 622 4206 622 4353 
z
M 1356 331 
L 1900 331 
L 1900 0 
L 231 0 
L 231 331 
L 781 331 
L 781 2988 
L 231 2988 
L 231 3322 
L 1356 3322 
L 1356 331 
z
" transform="scale(0.015625)"/>
      <path id="DejaVuSerif-f3" d="M 1925 219 
Q 2388 219 2623 584 
Q 2859 950 2859 1663 
Q 2859 2375 2623 2739 
Q 2388 3103 1925 3103 
Q 1463 3103 1227 2739 
Q 991 2375 991 1663 
Q 991 950 1228 584 
Q 1466 219 1925 219 
z
M 1925 -91 
Q 1200 -91 759 389 
Q 319 869 319 1663 
Q 319 2456 758 2934 
Q 1197 3413 1925 3413 
Q 2653 3413 3092 2934 
Q 3531 2456 3531 1663 
Q 3531 869 3092 389 
Q 2653 -91 1925 -91 
z
M 2362 5119 
L 2984 5119 
L 1922 3944 
L 1556 3944 
L 2362 5119 
z
" transform="scale(0.015625)"/>
      <path id="DejaVuSerif-6e" d="M 263 0 
L 263 331 
L 781 331 
L 781 2988 
L 231 2988 
L 231 3322 
L 1356 3322 
L 1356 2731 
Q 1516 3069 1770 3241 
Q 2025 3413 2363 3413 
Q 2913 3413 3172 3097 
Q 3431 2781 3431 2113 
L 3431 331 
L 3944 331 
L 3944 0 
L 2356 0 
L 2356 331 
L 2853 331 
L 2853 1931 
Q 2853 2541 2703 2767 
Q 2553 2994 2175 2994 
Q 1775 2994 1565 2701 
Q 1356 2409 1356 1850 
L 1356 331 
L 1856 331 
L 1856 0 
L 263 0 
z
" transform="scale(0.015625)"/>
      <path id="DejaVuSerif-20" transform="scale(0.015625)"/>
      <path id="DejaVuSerif-64" d="M 3359 331 
L 3909 331 
L 3909 0 
L 2784 0 
L 2784 519 
Q 2616 206 2355 57 
Q 2094 -91 1709 -91 
Q 1097 -91 708 395 
Q 319 881 319 1663 
Q 319 2444 706 2928 
Q 1094 3413 1709 3413 
Q 2094 3413 2355 3264 
Q 2616 3116 2784 2803 
L 2784 4531 
L 2241 4531 
L 2241 4863 
L 3359 4863 
L 3359 331 
z
M 2784 1497 
L 2784 1825 
Q 2784 2422 2554 2737 
Q 2325 3053 1888 3053 
Q 1444 3053 1217 2703 
Q 991 2353 991 1663 
Q 991 975 1217 622 
Q 1444 269 1888 269 
Q 2325 269 2554 583 
Q 2784 897 2784 1497 
z
" transform="scale(0.015625)"/>
      <path id="DejaVuSerif-65" d="M 3469 1600 
L 991 1600 
L 991 1575 
Q 991 903 1244 561 
Q 1497 219 1991 219 
Q 2369 219 2611 417 
Q 2853 616 2950 1006 
L 3413 1006 
Q 3275 459 2904 184 
Q 2534 -91 1931 -91 
Q 1203 -91 761 389 
Q 319 869 319 1663 
Q 319 2450 753 2931 
Q 1188 3413 1894 3413 
Q 2647 3413 3050 2948 
Q 3453 2484 3469 1600 
z
M 2791 1931 
Q 2772 2513 2545 2808 
Q 2319 3103 1894 3103 
Q 1497 3103 1269 2806 
Q 1041 2509 991 1931 
L 2791 1931 
z
" transform="scale(0.015625)"/>
      <path id="DejaVuSerif-72" d="M 3059 3328 
L 3059 2497 
L 2728 2497 
Q 2713 2744 2591 2866 
Q 2469 2988 2234 2988 
Q 1809 2988 1582 2694 
Q 1356 2400 1356 1850 
L 1356 331 
L 2022 331 
L 2022 0 
L 263 0 
L 263 331 
L 781 331 
L 781 2994 
L 231 2994 
L 231 3322 
L 1356 3322 
L 1356 2731 
Q 1525 3078 1790 3245 
Q 2056 3413 2438 3413 
Q 2578 3413 2733 3391 
Q 2888 3369 3059 3328 
z
" transform="scale(0.015625)"/>
      <path id="DejaVuSerif-61" d="M 2547 1044 
L 2547 1747 
L 1806 1747 
Q 1378 1747 1168 1562 
Q 959 1378 959 997 
Q 959 650 1171 447 
Q 1384 244 1747 244 
Q 2106 244 2326 466 
Q 2547 688 2547 1044 
z
M 3122 2075 
L 3122 331 
L 3634 331 
L 3634 0 
L 2547 0 
L 2547 359 
Q 2356 128 2106 18 
Q 1856 -91 1522 -91 
Q 969 -91 644 203 
Q 319 497 319 997 
Q 319 1513 691 1797 
Q 1063 2081 1741 2081 
L 2547 2081 
L 2547 2309 
Q 2547 2688 2317 2895 
Q 2088 3103 1672 3103 
Q 1328 3103 1125 2947 
Q 922 2791 872 2484 
L 575 2484 
L 575 3156 
Q 875 3284 1158 3348 
Q 1441 3413 1709 3413 
Q 2400 3413 2761 3070 
Q 3122 2728 3122 2075 
z
" transform="scale(0.015625)"/>
      <path id="DejaVuSerif-74" d="M 691 2988 
L 184 2988 
L 184 3322 
L 691 3322 
L 691 4353 
L 1269 4353 
L 1269 3322 
L 2350 3322 
L 2350 2988 
L 1269 2988 
L 1269 878 
Q 1269 456 1350 337 
Q 1431 219 1650 219 
Q 1875 219 1978 351 
Q 2081 484 2088 781 
L 2522 781 
Q 2497 328 2275 118 
Q 2053 -91 1600 -91 
Q 1103 -91 897 129 
Q 691 350 691 878 
L 691 2988 
z
" transform="scale(0.015625)"/>
      <path id="DejaVuSerif-67" d="M 3359 2988 
L 3359 72 
Q 3359 -644 2965 -1033 
Q 2572 -1422 1844 -1422 
Q 1516 -1422 1216 -1362 
Q 916 -1303 641 -1184 
L 641 -488 
L 941 -488 
Q 997 -813 1206 -963 
Q 1416 -1113 1806 -1113 
Q 2313 -1113 2548 -827 
Q 2784 -541 2784 72 
L 2784 519 
Q 2616 206 2355 57 
Q 2094 -91 1709 -91 
Q 1097 -91 708 395 
Q 319 881 319 1663 
Q 319 2444 706 2928 
Q 1094 3413 1709 3413 
Q 2094 3413 2355 3264 
Q 2616 3116 2784 2803 
L 2784 3322 
L 3909 3322 
L 3909 2988 
L 3359 2988 
z
M 2784 1825 
Q 2784 2422 2554 2737 
Q 2325 3053 1888 3053 
Q 1444 3053 1217 2703 
Q 991 2353 991 1663 
Q 991 975 1217 622 
Q 1444 269 1888 269 
Q 2325 269 2554 583 
Q 2784 897 2784 1497 
L 2784 1825 
z
" transform="scale(0.015625)"/>
      <path id="DejaVuSerif-4c" d="M 353 0 
L 353 331 
L 947 331 
L 947 4331 
L 353 4331 
L 353 4666 
L 2175 4666 
L 2175 4331 
L 1581 4331 
L 1581 384 
L 3713 384 
L 3713 1166 
L 4097 1166 
L 4097 0 
L 353 0 
z
" transform="scale(0.015625)"/>
      <path id="DejaVuSerif-73" d="M 359 184 
L 359 959 
L 691 959 
Q 703 588 923 403 
Q 1144 219 1575 219 
Q 1963 219 2166 364 
Q 2369 509 2369 788 
Q 2369 1006 2220 1140 
Q 2072 1275 1594 1428 
L 1178 1569 
Q 750 1706 558 1912 
Q 366 2119 366 2438 
Q 366 2894 700 3153 
Q 1034 3413 1625 3413 
Q 1888 3413 2178 3344 
Q 2469 3275 2778 3144 
L 2778 2419 
L 2447 2419 
Q 2434 2741 2221 2922 
Q 2009 3103 1644 3103 
Q 1281 3103 1095 2975 
Q 909 2847 909 2591 
Q 909 2381 1050 2254 
Q 1191 2128 1613 1997 
L 2069 1856 
Q 2541 1709 2748 1489 
Q 2956 1269 2956 922 
Q 2956 450 2595 179 
Q 2234 -91 1600 -91 
Q 1278 -91 972 -22 
Q 666 47 359 184 
z
" transform="scale(0.015625)"/>
     </defs>
     <use xlink:href="#DejaVuSerif-45"/>
     <use xlink:href="#DejaVuSerif-76" transform="translate(72.998047 0)"/>
     <use xlink:href="#DejaVuSerif-6f" transform="translate(129.492188 0)"/>
     <use xlink:href="#DejaVuSerif-6c" transform="translate(189.697266 0)"/>
     <use xlink:href="#DejaVuSerif-75" transform="translate(221.679688 0)"/>
     <use xlink:href="#DejaVuSerif-63" transform="translate(286.083984 0)"/>
     <use xlink:href="#DejaVuSerif-69" transform="translate(342.089844 0)"/>
     <use xlink:href="#DejaVuSerif-f3" transform="translate(374.072266 0)"/>
     <use xlink:href="#DejaVuSerif-6e" transform="translate(434.277344 0)"/>
     <use xlink:href="#DejaVuSerif-20" transform="translate(498.681641 0)"/>
     <use xlink:href="#DejaVuSerif-64" transform="translate(530.46875 0)"/>
     <use xlink:href="#DejaVuSerif-65" transform="translate(594.482422 0)"/>
     <use xlink:href="#DejaVuSerif-6c" transform="translate(653.662109 0)"/>
     <use xlink:href="#DejaVuSerif-20" transform="translate(685.644531 0)"/>
     <use xlink:href="#DejaVuSerif-53" transform="translate(717.431641 0)"/>
     <use xlink:href="#DejaVuSerif-63" transform="translate(785.9375 0)"/>
     <use xlink:href="#DejaVuSerif-6f" transform="translate(841.943359 0)"/>
     <use xlink:href="#DejaVuSerif-72" transform="translate(902.148438 0)"/>
     <use xlink:href="#DejaVuSerif-65" transform="translate(949.951172 0)"/>
     <use xlink:href="#DejaVuSerif-20" transform="translate(1009.130859 0)"/>
     <use xlink:href="#DejaVuSerif-4d" transform="translate(1040.917969 0)"/>
     <use xlink:href="#DejaVuSerif-61" transform="translate(1143.310547 0)"/>
     <use xlink:href="#DejaVuSerif-74" transform="translate(1202.929688 0)"/>
     <use xlink:href="#DejaVuSerif-63" transform="translate(1243.115234 0)"/>
     <use xlink:href="#DejaVuSerif-68" transform="translate(1299.121094 0)"/>
     <use xlink:href="#DejaVuSerif-69" transform="translate(1363.525391 0)"/>
     <use xlink:href="#DejaVuSerif-6e" transform="translate(1395.507812 0)"/>
     <use xlink:href="#DejaVuSerif-67" transform="translate(1459.912109 0)"/>
     <use xlink:href="#DejaVuSerif-20" transform="translate(1523.925781 0)"/>
     <use xlink:href="#DejaVuSerif-4c" transform="translate(1555.712891 0)"/>
     <use xlink:href="#DejaVuSerif-6f" transform="translate(1622.119141 0)"/>
     <use xlink:href="#DejaVuSerif-73" transform="translate(1682.324219 0)"/>
     <use xlink:href="#DejaVuSerif-73" transform="translate(1733.642578 0)"/>
    </g>
   </g>
  </g>
 </g>
 <defs>
  <clipPath id="pb631e34658">
   <rect x="48.8975" y="24.71775" width="357.12" height="266.112"/>
  </clipPath>
 </defs>
</svg>
